<svg width="22" height="22" viewBox="0 0 22 22" fill="none" xmlns="http://www.w3.org/2000/svg">
<path d="M11.125 0.09375C5.23828 0.09375 0.46875 4.86328 0.46875 10.75C0.46875 16.6367 5.23828 21.4062 11.125 21.4062C17.0117 21.4062 21.7812 16.6367 21.7812 10.75C21.7812 4.86328 17.0117 0.09375 11.125 0.09375ZM11.125 4.21875C13.1875 4.21875 14.9062 5.9375 14.9062 8C14.9062 10.1055 13.1875 11.7812 11.125 11.7812C9.01953 11.7812 7.34375 10.1055 7.34375 8C7.34375 5.9375 9.01953 4.21875 11.125 4.21875ZM11.125 19C8.58984 19 6.3125 17.8828 4.80859 16.0781C5.625 14.5742 7.21484 13.5 9.0625 13.5C9.14844 13.5 9.23438 13.543 9.36328 13.5859C9.92188 13.7578 10.4805 13.8438 11.125 13.8438C11.7266 13.8438 12.3281 13.7578 12.8438 13.5859C12.9727 13.543 13.0586 13.5 13.1875 13.5C14.9922 13.5 16.582 14.5742 17.3984 16.0781C15.8945 17.8828 13.6172 19 11.125 19Z" fill="currentColor"/>
</svg>
