<svg xmlns="http://www.w3.org/2000/svg" xmlns:xlink="http://www.w3.org/1999/xlink" width="512" zoomAndPan="magnify" viewBox="0 0 384 383.999986" height="512" preserveAspectRatio="xMidYMid meet" version="1.0"><defs><clipPath id="f7ea133595"><path d="M 42 38 L 364.769531 38 L 364.769531 361 L 42 361 Z M 42 38 " clip-rule="nonzero"/></clipPath></defs><g clip-path="url(#f7ea133595)"><path fill="#8899a6" d="M 348.207031 98.597656 L 322.304688 124.511719 C 322.304688 124.511719 305.027344 133.144531 287.757812 115.867188 C 270.480469 98.597656 279.113281 81.320312 279.113281 81.320312 L 305.027344 55.40625 C 313.671875 46.773438 303.289062 38.855469 295.496094 38.855469 C 257.226562 38.855469 226.214844 69.871094 226.214844 108.128906 C 226.214844 113.503906 226.894531 118.71875 228.046875 123.746094 L 169.484375 182.304688 L 221.300781 234.121094 L 279.859375 175.570312 C 284.894531 176.722656 290.101562 177.402344 295.484375 177.402344 C 333.746094 177.402344 364.757812 146.386719 364.757812 108.128906 C 364.769531 100.289062 356.84375 89.964844 348.207031 98.597656 Z M 168.464844 183.996094 L 53.320312 299.132812 C 39.195312 313.265625 39.195312 336.171875 53.320312 350.304688 C 67.460938 364.429688 90.359375 364.429688 104.492188 350.304688 L 219.621094 235.167969 Z M 79.128906 339.621094 C 71.390625 339.621094 65.128906 333.347656 65.128906 325.621094 C 65.128906 317.894531 71.398438 311.613281 79.128906 311.613281 C 86.863281 311.613281 93.128906 317.882812 93.128906 325.621094 C 93.128906 333.347656 86.863281 339.621094 79.128906 339.621094 Z M 79.128906 339.621094 " fill-opacity="1" fill-rule="nonzero"/></g><path fill="#ed8936" d="M 315.929688 353.234375 C 326.945312 364.25 344.476562 364.769531 354.859375 354.375 C 365.25 343.984375 364.730469 326.460938 353.714844 315.445312 L 133.9375 95.667969 C 122.914062 84.644531 105.398438 84.132812 95.007812 94.527344 C 84.617188 104.917969 85.136719 122.441406 96.152344 133.457031 Z M 315.929688 353.234375 " fill-opacity="1" fill-rule="nonzero"/><path fill="#66757f" d="M 227.261719 47.292969 C 227.261719 47.292969 170.582031 18.953125 123.347656 66.1875 L 57.222656 132.3125 C 57.222656 132.3125 47.773438 122.867188 38.328125 132.3125 L 28.878906 141.757812 C 28.878906 141.757812 19.433594 151.207031 28.878906 160.652344 L 66.667969 198.441406 C 66.667969 198.441406 76.113281 207.886719 85.5625 198.441406 L 95.007812 188.992188 C 95.007812 188.992188 104.453125 179.546875 95.007812 170.101562 L 94.269531 169.363281 C 101.542969 162.34375 112.4375 155.191406 123.347656 160.652344 L 161.136719 122.867188 C 161.136719 122.867188 151.6875 94.527344 170.582031 75.632812 C 189.476562 56.738281 198.921875 56.738281 217.816406 56.738281 C 236.707031 56.738281 227.261719 47.292969 227.261719 47.292969 Z M 227.261719 47.292969 " fill-opacity="1" fill-rule="nonzero"/></svg>