<svg width="232" height="226" viewBox="0 0 232 226" fill="none" xmlns="http://www.w3.org/2000/svg">
<g clip-path="url(#clip0_20_4369)">
<path d="M147.283 50.8267H84.7692C83.3446 50.8284 81.9788 51.3939 80.9715 52.3992C79.9642 53.4045 79.3975 54.7674 79.3958 56.1891V194.844L78.6793 195.062L63.3437 199.749C62.6169 199.97 61.8318 199.895 61.1609 199.539C60.49 199.183 59.988 198.576 59.7651 197.851L14.1485 49.15C13.9265 48.4247 14.0022 47.6411 14.3588 46.9714C14.7155 46.3017 15.3241 45.8007 16.0507 45.5786L39.6829 38.3572L108.194 17.4293L131.826 10.2079C132.185 10.0974 132.563 10.0588 132.938 10.0943C133.312 10.1298 133.676 10.2386 134.009 10.4146C134.341 10.5906 134.636 10.8303 134.875 11.1199C135.115 11.4096 135.294 11.7435 135.404 12.1026L147.065 50.1117L147.283 50.8267Z" fill="#F2F2F2"/>
<path d="M160.924 50.1117L146.871 4.30207C146.637 3.5388 146.255 2.82898 145.746 2.21319C145.238 1.59739 144.612 1.08768 143.906 0.713191C143.2 0.338699 142.426 0.106756 141.63 0.0306278C140.834 -0.0455006 140.031 0.0356763 139.266 0.269512L106.041 10.4188L37.5336 31.3503L4.30818 41.5032C2.7647 41.9762 1.47232 43.041 0.714724 44.4639C-0.0428737 45.8868 -0.203798 47.5516 0.267281 49.0928L48.2982 205.651C48.6809 206.895 49.4531 207.984 50.5014 208.758C51.5497 209.532 52.819 209.951 54.1231 209.952C54.7266 209.952 55.3268 209.862 55.9033 209.684L78.6794 202.727L79.3958 202.505V201.758L78.6794 201.976L55.6921 209.001C54.3297 209.416 52.8581 209.274 51.6003 208.607C50.3425 207.94 49.401 206.803 48.9825 205.444L0.955221 48.8819C0.74784 48.2087 0.675563 47.5013 0.742524 46.8002C0.809486 46.0991 1.01437 45.418 1.34545 44.7961C1.67652 44.1741 2.1273 43.6234 2.67195 43.1755C3.21659 42.7276 3.84441 42.3914 4.51946 42.186L37.7449 32.0331L106.252 11.1052L139.478 0.952337C139.99 0.796397 140.522 0.716886 141.057 0.716388C142.206 0.718962 143.324 1.0886 144.247 1.77115C145.17 2.45371 145.85 3.41332 146.187 4.50943L160.176 50.1117L160.398 50.8267H161.143L160.924 50.1117Z" fill="#3F3D56"/>
<path d="M43.9475 45.6955C43.2571 45.695 42.585 45.4737 42.0298 45.0641C41.4746 44.6545 41.0656 44.0781 40.8627 43.4194L36.2486 28.3789C36.1246 27.9749 36.0816 27.5505 36.122 27.1299C36.1624 26.7093 36.2854 26.3007 36.4841 25.9276C36.6827 25.5544 36.9531 25.224 37.2797 24.9551C37.6063 24.6862 37.9828 24.4842 38.3877 24.3606L101.414 5.10446C102.231 4.85548 103.114 4.9404 103.869 5.34058C104.624 5.74076 105.189 6.4235 105.44 7.23897L110.054 22.2797C110.304 23.0956 110.219 23.9769 109.818 24.7303C109.417 25.4836 108.733 26.0475 107.915 26.2982L44.8894 45.5543C44.5842 45.6478 44.2668 45.6954 43.9475 45.6955Z" fill="#F9A826"/>
<path d="M68.1179 16.0711C72.0747 16.0711 75.2824 12.87 75.2824 8.92117C75.2824 4.97237 72.0747 1.77124 68.1179 1.77124C64.161 1.77124 60.9534 4.97237 60.9534 8.92117C60.9534 12.87 64.161 16.0711 68.1179 16.0711Z" fill="#F9A826"/>
<path d="M68.1178 13.4488C70.6234 13.4488 72.6546 11.4217 72.6546 8.92124C72.6546 6.42073 70.6234 4.39368 68.1178 4.39368C65.6122 4.39368 63.5811 6.42073 63.5811 8.92124C63.5811 11.4217 65.6122 13.4488 68.1178 13.4488Z" fill="white"/>
<path d="M215.88 208.125H94.7996C93.9923 208.124 93.2183 207.804 92.6475 207.234C92.0767 206.664 91.7556 205.892 91.7546 205.086V60.3003C91.7555 59.4947 92.0766 58.7223 92.6475 58.1526C93.2183 57.5829 93.9923 57.2625 94.7996 57.2616H215.88C216.687 57.2625 217.461 57.583 218.032 58.1526C218.603 58.7223 218.924 59.4947 218.925 60.3003V205.086C218.924 205.892 218.603 206.664 218.032 207.234C217.461 207.804 216.687 208.124 215.88 208.125Z" fill="#E6E6E6"/>
<path d="M160.176 50.1117H84.7692C83.1547 50.114 81.6071 50.755 80.4655 51.8943C79.3239 53.0335 78.6816 54.578 78.6793 56.1891V201.976L79.3958 201.758V56.1891C79.3975 54.7675 79.9642 53.4045 80.9715 52.3992C81.9788 51.3939 83.3446 50.8284 84.7692 50.8267H160.398L160.176 50.1117ZM225.91 50.1117H84.7692C83.1547 50.114 81.6071 50.755 80.4655 51.8943C79.3239 53.0335 78.6816 54.578 78.6793 56.1891V219.923C78.6816 221.534 79.3239 223.078 80.4655 224.217C81.6071 225.357 83.1547 225.998 84.7692 226H225.91C227.525 225.998 229.072 225.357 230.214 224.217C231.355 223.078 231.998 221.534 232 219.923V56.1891C231.998 54.578 231.355 53.0335 230.214 51.8943C229.072 50.755 227.525 50.114 225.91 50.1117ZM231.284 219.923C231.282 221.344 230.715 222.707 229.708 223.713C228.7 224.718 227.335 225.283 225.91 225.285H84.7692C83.3446 225.283 81.9788 224.718 80.9715 223.713C79.9642 222.707 79.3975 221.344 79.3958 219.923V56.1891C79.3975 54.7675 79.9642 53.4045 80.9715 52.3992C81.9788 51.3939 83.3446 50.8284 84.7692 50.8267H225.91C227.335 50.8284 228.7 51.3939 229.708 52.3992C230.715 53.4045 231.282 54.7675 231.284 56.1891V219.923Z" fill="#3F3D56"/>
<path d="M188.297 65.8415H122.383C121.528 65.8406 120.709 65.5013 120.104 64.8981C119.5 64.2949 119.16 63.4771 119.159 62.6241V46.8942C119.16 46.0412 119.5 45.2234 120.104 44.6202C120.709 44.017 121.528 43.6777 122.383 43.6768H188.297C189.151 43.6777 189.971 44.017 190.575 44.6202C191.18 45.2234 191.52 46.0412 191.521 46.8942V62.6241C191.52 63.4771 191.18 64.2949 190.575 64.8981C189.971 65.5013 189.151 65.8406 188.297 65.8415Z" fill="#F9A826"/>
<path d="M155.34 44.7492C159.297 44.7492 162.504 41.5481 162.504 37.5993C162.504 33.6505 159.297 30.4493 155.34 30.4493C151.383 30.4493 148.175 33.6505 148.175 37.5993C148.175 41.5481 151.383 44.7492 155.34 44.7492Z" fill="#F9A826"/>
<path d="M155.34 41.9542C157.75 41.9542 159.704 40.0044 159.704 37.5992C159.704 35.1941 157.75 33.2443 155.34 33.2443C152.93 33.2443 150.976 35.1941 150.976 37.5992C150.976 40.0044 152.93 41.9542 155.34 41.9542Z" fill="white"/>
</g>
<defs>
<clipPath id="clip0_20_4369">
<rect width="232" height="226" fill="white"/>
</clipPath>
</defs>
</svg>
