<svg width="393" height="297" viewBox="0 0 393 297" fill="none" xmlns="http://www.w3.org/2000/svg">
<rect width="458.341" height="66.8363" transform="translate(-37 152.997) rotate(-19.5)" fill="#FB923C"/>
<rect width="450.695" height="66.3737" transform="translate(-20 233.879) rotate(-19.5)" fill="#2F2E41"/>
<rect width="450.695" height="66.3737" transform="translate(-20 233.879) rotate(-19.5)" fill="#4B5563"/>
<path d="M302.149 77.2327H211.609V75.3483H170.554V77.2327H79.641C78.0166 77.2327 76.4587 77.8843 75.3101 79.0442C74.1614 80.2042 73.5161 81.7774 73.5161 83.4177V208.613C73.5161 210.253 74.1614 211.826 75.3101 212.986C76.4587 214.146 78.0166 214.798 79.641 214.798H302.149C303.774 214.798 305.332 214.146 306.48 212.986C307.629 211.826 308.274 210.253 308.274 208.613V83.417C308.274 81.7768 307.629 80.2038 306.48 79.044C305.331 77.8842 303.774 77.2327 302.149 77.2327Z" fill="#3F3D56"/>
<path d="M300.559 88.6292H82.3334V212.584H300.559V88.6292Z" fill="#E6E6E6"/>
<path d="M290.64 95.2697H91.1505V201.517H290.64V95.2697Z" fill="white"/>
<path d="M191.446 85.309C192.664 85.309 193.651 84.318 193.651 83.0955C193.651 81.873 192.664 80.882 191.446 80.882C190.229 80.882 189.242 81.873 189.242 83.0955C189.242 84.318 190.229 85.309 191.446 85.309Z" fill="#F58126"/>
<path d="M314.215 210.013H292.967V208.464C292.967 208.383 292.935 208.305 292.878 208.247C292.821 208.19 292.744 208.157 292.663 208.157H285.378C285.297 208.157 285.22 208.19 285.163 208.247C285.106 208.305 285.074 208.383 285.074 208.464V210.013H280.521V208.464C280.521 208.383 280.489 208.305 280.432 208.247C280.375 208.19 280.298 208.157 280.218 208.157H272.932C272.852 208.157 272.775 208.19 272.718 208.247C272.661 208.305 272.629 208.383 272.629 208.464V210.013H268.076V208.464C268.076 208.383 268.044 208.305 267.987 208.247C267.93 208.19 267.853 208.157 267.772 208.157H260.487C260.406 208.157 260.329 208.19 260.272 208.247C260.215 208.305 260.183 208.383 260.183 208.464V210.013H255.63V208.464C255.63 208.383 255.598 208.305 255.541 208.247C255.484 208.19 255.407 208.157 255.327 208.157H248.042C247.961 208.157 247.884 208.19 247.827 208.247C247.77 208.305 247.738 208.383 247.738 208.464V210.013H243.185V208.464C243.185 208.383 243.153 208.305 243.096 208.247C243.039 208.19 242.962 208.157 242.881 208.157H235.596C235.516 208.157 235.438 208.19 235.382 208.247C235.325 208.305 235.293 208.383 235.293 208.464V210.013H230.739V208.464C230.739 208.383 230.707 208.305 230.65 208.247C230.593 208.19 230.516 208.157 230.436 208.157H223.152C223.072 208.157 222.994 208.19 222.937 208.247C222.881 208.305 222.849 208.383 222.849 208.464V210.013H218.294V208.464C218.294 208.383 218.262 208.305 218.205 208.247C218.148 208.19 218.071 208.157 217.99 208.157H160.923C160.843 208.157 160.766 208.19 160.709 208.247C160.652 208.305 160.62 208.383 160.62 208.464V210.013H156.067V208.464C156.067 208.383 156.035 208.305 155.978 208.247C155.921 208.19 155.844 208.157 155.763 208.157H148.478C148.397 208.157 148.32 208.19 148.263 208.247C148.206 208.305 148.174 208.383 148.174 208.464V210.013H143.621V208.464C143.621 208.383 143.589 208.305 143.532 208.247C143.475 208.19 143.398 208.157 143.318 208.157H136.033C135.952 208.157 135.875 208.19 135.818 208.247C135.761 208.305 135.729 208.383 135.729 208.464V210.013H131.176V208.464C131.176 208.383 131.144 208.305 131.087 208.247C131.03 208.19 130.953 208.157 130.872 208.157H123.587C123.507 208.157 123.43 208.19 123.373 208.247C123.316 208.305 123.284 208.383 123.284 208.464V210.013H118.731V208.464C118.731 208.383 118.699 208.305 118.642 208.247C118.585 208.19 118.508 208.157 118.428 208.157H111.142C111.061 208.157 110.984 208.19 110.927 208.247C110.87 208.305 110.838 208.383 110.838 208.464V210.013H106.285V208.464C106.285 208.383 106.253 208.305 106.196 208.247C106.139 208.19 106.062 208.157 105.981 208.157H98.6963C98.6158 208.157 98.5385 208.19 98.4816 208.247C98.4246 208.305 98.3927 208.383 98.3927 208.464V210.013H93.8396V208.464C93.8396 208.383 93.8077 208.305 93.7507 208.247C93.6938 208.19 93.6165 208.157 93.536 208.157H86.2494C86.1689 208.157 86.0917 208.19 86.0347 208.247C85.9778 208.305 85.9458 208.383 85.9458 208.464V210.013H71.9841C70.052 210.013 68.199 210.789 66.8328 212.171C65.4665 213.552 64.699 215.426 64.699 217.38V220.711C64.699 222.665 65.4665 224.539 66.8328 225.921C68.199 227.302 70.052 228.079 71.9841 228.079H314.215C316.147 228.079 318 227.302 319.366 225.921C320.732 224.539 321.5 222.666 321.5 220.712V217.38C321.5 215.427 320.733 213.553 319.366 212.171C318 210.789 316.147 210.013 314.215 210.013V210.013Z" fill="#3F3D56"/>
<path d="M235.532 103.017H147.36V195.983H235.532V103.017Z" fill="#E6E6E6"/>
<path d="M347.239 203.425C352.109 208.926 352.36 217.011 352.36 217.011C352.36 217.011 344.717 216.177 339.847 210.677C334.978 205.176 334.726 197.09 334.726 197.09C334.726 197.09 342.369 197.924 347.239 203.425Z" fill="#F58126"/>
<path d="M362.934 211.869C357.761 216.759 350.156 217.011 350.156 217.011C350.156 217.011 350.94 209.336 356.114 204.446C361.288 199.556 368.892 199.303 368.892 199.303C368.892 199.303 368.109 206.979 362.934 211.869Z" fill="#F58126"/>
<path d="M361.553 228.078H342.065C341.691 228.078 341.325 227.969 341.008 227.761C340.691 227.554 340.436 227.258 340.272 226.906L336.029 217.792C335.881 217.474 335.813 217.123 335.831 216.77C335.849 216.417 335.952 216.075 336.131 215.775C336.311 215.476 336.56 215.229 336.856 215.058C337.151 214.887 337.484 214.797 337.822 214.798H365.796C366.134 214.797 366.467 214.887 366.763 215.058C367.058 215.229 367.308 215.476 367.487 215.775C367.666 216.075 367.77 216.417 367.788 216.77C367.805 217.123 367.737 217.474 367.589 217.792L363.346 226.907C363.182 227.258 362.928 227.554 362.611 227.762C362.294 227.969 361.927 228.079 361.553 228.079L361.553 228.078Z" fill="#E5E5E5"/>
<path d="M35.3304 203.425C40.2 208.926 40.4517 217.011 40.4517 217.011C40.4517 217.011 32.8082 216.177 27.9386 210.677C23.0689 205.176 22.8173 197.09 22.8173 197.09C22.8173 197.09 30.4608 197.924 35.3304 203.425Z" fill="#E5E5E5"/>
<path d="M46.338 228.078H26.8499C26.476 228.078 26.1095 227.969 25.7925 227.761C25.4755 227.554 25.2207 227.258 25.0573 226.906L20.8144 217.792C20.6663 217.474 20.5979 217.123 20.6157 216.77C20.6335 216.417 20.7369 216.075 20.9162 215.775C21.0955 215.476 21.3448 215.229 21.6406 215.058C21.9364 214.887 22.269 214.797 22.607 214.798H50.5812C50.9192 214.797 51.2518 214.887 51.5476 215.058C51.8434 215.229 52.0927 215.476 52.272 215.775C52.4513 216.075 52.5547 216.417 52.5725 216.77C52.5903 217.123 52.5219 217.474 52.3738 217.792L48.1309 226.907C47.9675 227.258 47.7127 227.554 47.3957 227.762C47.0787 227.969 46.7122 228.079 46.3383 228.079L46.338 228.078Z" fill="#E5E5E5"/>
<path d="M201.917 128.472C208.308 128.472 213.489 123.269 213.489 116.851C213.489 110.433 208.308 105.23 201.917 105.23C195.525 105.23 190.344 110.433 190.344 116.851C190.344 123.269 195.525 128.472 201.917 128.472Z" fill="#A0616A"/>
<path d="M174.914 196.044L182.396 148.194C182.794 145.65 183.72 143.221 185.114 141.069C186.508 138.917 188.336 137.092 190.479 135.714C192.621 134.335 195.027 133.436 197.538 133.077C200.049 132.717 202.607 132.904 205.04 133.627C209.296 134.877 212.94 137.694 215.26 141.528C217.58 145.361 218.411 149.936 217.588 154.358L209.763 197.09L174.914 196.044Z" fill="#F58126"/>
<path d="M205.222 205.097C205.781 204.692 206.252 204.158 206.603 203.533C206.953 202.907 207.174 202.205 207.25 201.476C207.326 200.747 207.255 200.008 207.042 199.312C206.829 198.616 206.479 197.98 206.018 197.448L213.489 181.596L205.075 182.579L199.27 197.482C198.509 198.392 198.079 199.575 198.06 200.809C198.041 202.043 198.435 203.242 199.167 204.179C199.9 205.116 200.92 205.727 202.036 205.896C203.151 206.065 204.285 205.781 205.222 205.097L205.222 205.097Z" fill="#A0616A"/>
<path d="M207.143 194.855C206.725 194.793 206.335 194.601 206.025 194.303L203.133 191.521C202.82 191.219 202.605 190.825 202.515 190.391C202.425 189.957 202.465 189.505 202.63 189.096L208.409 174.837L207.589 146.662C207.829 144.834 208.756 143.18 210.167 142.064C211.578 140.948 213.358 140.461 215.114 140.71C216.87 140.959 218.459 141.925 219.531 143.393C220.604 144.862 221.072 146.714 220.832 148.542L222.234 166.254C222.66 171.629 221.196 176.983 218.114 181.318L209.101 194.001C208.927 194.245 208.706 194.448 208.453 194.597C208.199 194.746 207.918 194.838 207.628 194.867C207.466 194.883 207.304 194.879 207.143 194.855Z" fill="#F58126"/>
<path d="M134.217 110.871C134.344 111.551 134.62 112.195 135.025 112.758C135.43 113.321 135.954 113.789 136.562 114.129C137.169 114.469 137.843 114.673 138.539 114.726C139.234 114.78 139.932 114.681 140.585 114.438L151.42 127.365L153.973 119.004L143.293 108.01C142.806 106.953 141.945 106.109 140.874 105.638C139.803 105.167 138.595 105.102 137.478 105.454C136.361 105.806 135.413 106.551 134.813 107.549C134.212 108.547 134 109.729 134.218 110.871H134.217Z" fill="#A0616A"/>
<path d="M143.255 115.753C143.479 115.37 143.811 115.067 144.207 114.883L147.902 113.17C148.302 112.986 148.748 112.932 149.18 113.016C149.611 113.1 150.006 113.318 150.313 113.641L160.981 124.907L186.974 135.26C187.752 135.734 188.431 136.359 188.972 137.102C189.514 137.845 189.908 138.69 190.131 139.588C190.354 140.487 190.403 141.422 190.274 142.341C190.145 143.259 189.841 144.142 189.379 144.939C188.917 145.737 188.307 146.433 187.583 146.988C186.859 147.544 186.035 147.947 185.159 148.176C184.283 148.404 183.372 148.453 182.477 148.32C181.583 148.187 180.722 147.875 179.946 147.4L163.25 141.754C158.183 140.042 153.894 136.498 151.182 131.783L143.248 117.995C143.096 117.73 142.999 117.435 142.965 117.129C142.931 116.823 142.961 116.513 143.051 116.219C143.101 116.056 143.17 115.9 143.256 115.753L143.255 115.753Z" fill="#F58126"/>
<path opacity="0.1" d="M211.285 158.354L210.831 173.845L202.468 189.343L209.451 172.073L211.285 158.354Z" fill="black"/>
<path d="M194.317 110.95C195.506 112.419 197.518 112.833 199.374 113.003C203.144 113.349 208.625 112.79 212.308 111.901C212.571 114.561 211.855 117.43 213.355 119.618C214.059 116.969 214.468 114.243 214.575 111.496C214.62 110.32 214.602 109.099 214.144 108.018C213.685 106.936 212.685 106.018 211.533 106.009C212.389 105.331 213.391 104.884 214.452 104.706L210.805 102.793L211.742 101.789L205.139 101.367L207.051 100.099C204.173 99.6864 201.262 99.5908 198.364 99.8137C197.019 99.9171 195.612 100.115 194.522 100.929C193.432 101.743 192.802 103.36 193.479 104.555C192.632 104.7 191.834 105.069 191.162 105.626C190.489 106.183 189.964 106.91 189.636 107.739C189.15 109.025 189.194 110.454 189.344 111.824C189.593 114.016 190.081 116.172 190.799 118.248" fill="#2F2E41"/>
<path d="M243.881 81.5709L137.215 106.285C136.691 106.406 136.141 106.313 135.685 106.028C135.229 105.742 134.905 105.286 134.784 104.761L128.675 78.2062C128.555 77.6804 128.647 77.1283 128.932 76.6709C129.217 76.2135 129.671 75.8881 130.194 75.7661L236.86 51.0517C237.384 50.931 237.934 51.0237 238.39 51.3095C238.846 51.5954 239.17 52.051 239.292 52.5764L245.4 79.1309C245.52 79.6567 245.428 80.2088 245.143 80.6662C244.858 81.1236 244.404 81.449 243.881 81.5709Z" fill="white"/>
<path d="M243.881 81.5709L137.215 106.285C136.691 106.406 136.141 106.313 135.685 106.028C135.229 105.742 134.905 105.286 134.784 104.761L128.675 78.2062C128.555 77.6804 128.647 77.1283 128.932 76.6709C129.217 76.2135 129.671 75.8881 130.194 75.7661L236.86 51.0517C237.384 50.931 237.934 51.0237 238.39 51.3095C238.846 51.5954 239.17 52.051 239.292 52.5764L245.4 79.1309C245.52 79.6567 245.428 80.2088 245.143 80.6662C244.858 81.1236 244.404 81.449 243.881 81.5709ZM130.377 76.5592C130.063 76.6324 129.79 76.8277 129.619 77.1022C129.448 77.3767 129.393 77.708 129.465 78.0234L135.574 104.578C135.647 104.893 135.841 105.167 136.115 105.338C136.388 105.51 136.718 105.565 137.033 105.493L243.699 80.7785C244.013 80.7054 244.285 80.5102 244.456 80.2356C244.627 79.9611 244.683 79.6298 244.61 79.3143L238.502 52.7594C238.429 52.444 238.234 52.1706 237.961 51.999C237.687 51.8275 237.357 51.7719 237.043 51.8445L130.377 76.5592Z" fill="#E6E6E6"/>
<path d="M167.169 77.001C166.992 77.0421 166.825 77.1183 166.677 77.2251C166.53 77.332 166.404 77.4674 166.308 77.6237C166.212 77.78 166.146 77.9541 166.116 78.1361C166.086 78.318 166.091 78.5042 166.132 78.6841C166.172 78.864 166.247 79.034 166.352 79.1844C166.457 79.3348 166.59 79.4626 166.743 79.5607C166.897 79.6587 167.068 79.725 167.247 79.7557C167.425 79.7864 167.608 79.781 167.785 79.7397L167.789 79.7386L231.159 64.8406C231.515 64.7563 231.823 64.5316 232.017 64.2158C232.21 63.9 232.273 63.5189 232.19 63.1563C232.108 62.7936 231.888 62.479 231.578 62.2815C231.268 62.084 230.894 62.0198 230.538 62.103L167.169 77.001Z" fill="#E6E6E6"/>
<path d="M169.363 84.8587C169.188 84.8982 169.023 84.9713 168.876 85.0739C168.73 85.1765 168.606 85.3066 168.51 85.4566C168.415 85.6067 168.35 85.7738 168.32 85.9485C168.29 86.1232 168.295 86.302 168.336 86.4747C168.376 86.6474 168.45 86.8107 168.554 86.9551C168.658 87.0995 168.79 87.2223 168.942 87.3164C169.094 87.4105 169.263 87.4741 169.44 87.5036C169.617 87.5331 169.799 87.5279 169.974 87.4883L169.978 87.4873L196.998 81.3321C197.351 81.2521 197.658 81.037 197.85 80.734C198.043 80.4309 198.106 80.0649 198.025 79.7162C197.944 79.3676 197.726 79.065 197.419 78.8748C197.112 78.6847 196.741 78.6227 196.387 78.7025L196.383 78.7035L169.363 84.8587Z" fill="#E6E6E6"/>
<path d="M150.024 94.578C154.601 94.578 158.311 90.8502 158.311 86.2517C158.311 81.6532 154.601 77.9254 150.024 77.9254C145.447 77.9254 141.737 81.6532 141.737 86.2517C141.737 90.8502 145.447 94.578 150.024 94.578Z" fill="#F58126"/>
<path d="M149.791 91.0549C149.519 91.1183 149.235 91.0913 148.98 90.9781L148.964 90.971L145.63 89.45C145.475 89.3796 145.336 89.2791 145.22 89.1544C145.103 89.0297 145.013 88.8832 144.953 88.7234C144.893 88.5635 144.865 88.3933 144.871 88.2227C144.877 88.052 144.916 87.8841 144.987 87.7286C145.057 87.5732 145.157 87.4332 145.281 87.3167C145.406 87.2001 145.552 87.1094 145.711 87.0495C145.87 86.9897 146.039 86.962 146.209 86.968C146.379 86.974 146.546 87.0136 146.701 87.0845L148.861 88.0729L151.893 81.3808C152.035 81.0675 152.295 80.8237 152.615 80.7029C152.936 80.5822 153.292 80.5945 153.604 80.737L153.585 80.7807L153.605 80.7368C153.916 80.8798 154.159 81.1411 154.279 81.4635C154.399 81.7859 154.387 82.1429 154.245 82.4563L150.68 90.3287C150.597 90.51 150.474 90.6698 150.32 90.7957C150.166 90.9215 149.985 91.01 149.792 91.0543L149.791 91.0549Z" fill="white"/>
</svg>
