<svg width="124" height="129" viewBox="0 0 124 129" fill="none" xmlns="http://www.w3.org/2000/svg">
<g clip-path="url(#clip0_40_2144)">
<path d="M117.511 120.206C117.511 125.063 91.2056 129 58.7555 129C26.3054 129 0 125.063 0 120.206C0 116.768 13.1859 113.789 32.4027 112.344C40.3271 111.747 49.2807 111.412 58.7555 111.412C62.6504 111.412 66.4563 111.469 70.137 111.577C97.1399 112.371 117.511 115.932 117.511 120.206Z" fill="#3F3D56"/>
<path opacity="0.1" d="M51.1742 122.003C63.6307 122.003 73.7287 120.775 73.7287 119.26C73.7287 117.746 63.6307 116.518 51.1742 116.518C38.7176 116.518 28.6196 117.746 28.6196 119.26C28.6196 120.775 38.7176 122.003 51.1742 122.003Z" fill="black"/>
<path d="M51.0794 121.246C62.8555 121.246 72.402 111.086 72.402 98.552C72.402 86.0183 62.8555 75.8578 51.0794 75.8578C39.3033 75.8578 29.7568 86.0183 29.7568 98.552C29.7568 111.086 39.3033 121.246 51.0794 121.246Z" fill="#3F3D56"/>
<path d="M57.8078 111.979H44.5404V124.083H57.8078V111.979Z" fill="#F9A826"/>
<path d="M75.1502 114.911L74.3921 119.071L79.32 119.828L82.542 117.937L82.3525 114.911H75.1502Z" fill="#575A89"/>
<path d="M50.3212 36.8049C50.3212 36.8049 49.9421 41.1547 48.9945 41.3438C48.0468 41.5329 51.0794 49.0976 51.0794 49.0976H55.6282L59.2293 48.152L57.5235 43.9914C57.5235 43.9914 55.2491 40.9655 56.9549 38.507C58.6607 36.0485 50.3212 36.8049 50.3212 36.8049Z" fill="#A0616A"/>
<path opacity="0.1" d="M50.3212 36.8049C50.3212 36.8049 49.9421 41.1547 48.9945 41.3438C48.0468 41.5329 51.0794 49.0976 51.0794 49.0976H55.6282L59.2293 48.152L57.5235 43.9914C57.5235 43.9914 55.2491 40.9655 56.9549 38.507C58.6607 36.0485 50.3212 36.8049 50.3212 36.8049Z" fill="black"/>
<path d="M40.8446 70.0897C40.8446 70.0897 35.9167 79.5456 39.8969 81.4368C43.8771 83.328 44.8248 83.1389 44.8248 83.7062C44.8248 84.2736 44.0667 84.0845 44.4457 85.0301C44.8248 85.9756 43.6876 89.758 44.8248 92.0274C45.962 94.2968 45.5829 95.9989 45.5829 95.9989C45.5829 95.9989 45.5829 96.188 45.962 96.9445C46.3411 97.701 46.5306 98.2683 46.3411 98.6466C46.1515 99.0248 45.0143 101.483 46.1515 102.051C47.2887 102.618 53.1643 102.996 53.7329 102.051C54.3015 101.105 53.1643 100.538 53.7329 99.9704C54.3015 99.403 54.6806 99.2139 54.3015 98.8357C53.9224 98.4574 53.5434 93.7295 53.5434 93.7295C53.5434 93.7295 54.491 88.2451 54.112 87.4886C53.7329 86.7321 53.1643 85.9756 53.5434 85.4083C53.9224 84.8409 54.3015 85.0301 54.491 84.2736C54.6806 83.5171 55.0596 81.815 55.0596 81.815L57.1445 81.6259L62.0724 82.5715C62.0724 82.5715 67.5689 88.6233 73.6339 90.5145C73.6339 90.5145 75.3398 92.2165 75.9084 92.2165C76.477 92.2165 76.477 92.2165 76.2874 92.5948C76.0979 92.973 75.5293 92.973 75.9084 93.3512C76.2874 93.7295 76.856 93.1621 76.477 93.7295C76.0979 94.2968 75.7188 94.2968 76.0979 94.6751C76.477 95.0533 75.9084 97.1336 75.9084 97.3227C75.9084 97.5118 74.2025 115.289 74.7711 115.667C75.3398 116.045 83.3002 117.18 83.8688 115.667C84.4374 114.154 83.4897 112.263 83.4897 112.263C83.4897 112.263 86.3327 89.5689 85.5746 88.0559C84.8164 86.543 82.163 79.7347 67.9479 75.385C67.9479 75.385 63.9677 74.6286 63.9677 74.0612C63.9677 73.4938 63.5886 69.9006 62.8305 69.7115C62.0724 69.5224 57.7131 69.3333 57.7131 69.3333L52.2166 71.0353L44.6353 69.7115L40.8446 70.0897Z" fill="#2F2E41"/>
<path d="M47.4782 101.862L46.5305 105.266C46.5305 105.266 45.7724 110.75 46.72 112.074C47.4644 113.114 48.7935 114.387 51.2583 114.61C51.9491 114.674 52.6409 114.5 53.2191 114.117C53.7974 113.735 54.2275 113.167 54.4384 112.508C54.4667 112.429 54.4844 112.347 54.4909 112.263C54.4909 111.885 53.9223 107.346 53.9223 107.346L52.9747 102.618L52.7851 101.294L47.4782 101.862Z" fill="#2F2E41"/>
<path d="M75.1502 118.126C75.1502 118.126 74.2025 117.18 74.013 118.126C73.8235 119.071 73.0653 123.043 74.3921 123.232C75.7188 123.421 88.4176 125.312 89.7443 124.556C91.0711 123.799 93.535 122.665 92.0187 122.097C90.5024 121.53 86.1432 119.828 86.1432 119.828C86.1432 119.828 83.6792 116.613 83.3002 116.424C82.9211 116.235 80.8362 116.613 79.8886 117.369C78.9409 118.126 75.1502 118.126 75.1502 118.126Z" fill="#2F2E41"/>
<path d="M54.8701 40.7764C58.115 40.7764 60.7456 38.1516 60.7456 34.9137C60.7456 31.6759 58.115 29.0511 54.8701 29.0511C51.6251 29.0511 48.9945 31.6759 48.9945 34.9137C48.9945 38.1516 51.6251 40.7764 54.8701 40.7764Z" fill="#A0616A"/>
<path d="M54.3014 48.152L52.027 45.6935L49.5059 40.7764C49.5059 40.7764 47.6677 40.2091 47.2886 41.1546C46.9096 42.1002 40.0864 45.1261 40.0864 45.1261C40.0864 45.1261 41.7922 61.012 41.034 62.525C40.2759 64.0379 38.9492 70.0897 40.0864 70.6571C41.2236 71.2244 46.5305 70.6571 48.2363 71.4135C49.9421 72.17 54.87 72.17 56.1967 71.2244C57.5235 70.2788 57.9025 69.5224 59.2293 70.0897C60.3588 70.5727 62.9992 54.0599 63.7594 49.139C63.8235 48.7257 63.7703 48.3028 63.6059 47.9181C63.4415 47.5334 63.1725 47.2023 62.8292 46.9623C61.1286 45.772 58.0657 43.7209 57.5235 43.9914C56.7653 44.3697 54.3014 48.152 54.3014 48.152Z" fill="#575A89"/>
<path d="M62.4514 47.3955C62.8965 47.5066 63.2969 47.7508 63.5987 48.0955C63.9006 48.4402 64.0896 48.8688 64.1403 49.3237L65.6735 63.0923C65.6735 63.0923 61.8828 71.2244 59.9875 65.74C58.0921 60.2556 62.4514 47.3955 62.4514 47.3955Z" fill="#575A89"/>
<path d="M62.0724 64.4162L66.2421 63.2815C66.2421 63.2815 67.0002 68.5768 67.7584 68.5768C68.5165 68.5768 65.1049 71.6027 63.3991 71.2244C61.6933 70.8462 59.2293 69.5224 59.0398 68.5768C58.8503 67.6312 60.7456 63.6597 60.7456 63.6597L62.0724 64.4162Z" fill="#575A89"/>
<path d="M50.4346 37.4428C50.8341 36.5638 50.7648 35.5385 51.0951 34.6313C51.2719 34.1455 51.559 33.7072 51.9337 33.3504C52.3085 32.9936 52.7608 32.7282 53.2554 32.5747C53.75 32.4213 54.2735 32.384 54.7849 32.4658C55.2963 32.5476 55.7819 32.7463 56.2036 33.0463C56.6285 33.3486 57.0545 33.7733 57.5731 33.7156C58.1316 33.6535 58.6298 33.0318 59.1432 33.2596C59.7124 33.5122 59.5587 34.5299 60.1352 34.765C60.4387 34.8887 60.7974 34.6982 60.9724 34.4216C61.1255 34.1309 61.209 33.8088 61.2161 33.4805C61.2957 32.6739 61.3676 31.8202 61.017 31.0891C60.8696 30.8413 60.741 30.5827 60.6326 30.3156C60.5712 30.0662 60.5466 29.8092 60.5595 29.5527C60.5563 28.6046 60.487 27.6157 60.0088 26.7964C59.4782 25.8873 58.4973 25.306 57.4741 25.0523C56.4508 24.7987 55.3788 24.8376 54.3282 24.9263C52.5915 25.073 50.7803 25.3875 49.412 26.4648C49.226 26.6003 49.0659 26.7681 48.9394 26.9602C48.8193 27.1883 48.7344 27.4332 48.6877 27.6867C48.3918 28.8887 47.9483 30.0497 47.3671 31.1432C47.0875 31.6068 46.859 32.0992 46.6856 32.6118C46.5405 33.1327 46.5503 33.7264 46.854 34.1741C47.1013 34.5386 47.4967 34.7328 47.8073 35.0309C48.1151 35.3262 48.2591 35.8941 48.6 36.1177C48.8977 36.3129 49.2542 36.1751 49.5577 36.382C49.9474 36.6476 49.9756 37.23 50.4346 37.4428Z" fill="#2F2E41"/>
<path d="M55.2491 50.9888L55.8177 49.8541C55.8177 49.8541 64.1572 52.3126 65.863 54.582C65.863 54.582 70.0328 51.9344 72.3072 52.3126L74.5816 52.6908L67.5688 58.9317L58.6608 58.1753L55.2491 50.9888Z" fill="#F2F2F2"/>
<path d="M54.87 49.8541L47.0991 60.6338L58.2816 66.1182C58.2816 66.1182 59.327 66.6856 60.1311 66.1182L67.5688 62.7141L74.5815 52.6908L67.5688 56.2841C67.5688 56.2841 66.8106 54.7711 65.2944 55.5276L54.87 49.8541Z" fill="#F9A826"/>
<path d="M66.8107 68.955L68.327 64.9835C68.327 64.9835 71.7386 60.6338 69.8432 58.5535C67.9479 56.4732 65.863 64.6053 65.863 64.6053L66.8107 68.955Z" fill="#A0616A"/>
<path d="M49.3163 68.3212L52.6248 65.6448C52.6248 65.6448 57.7631 63.5901 57.1696 60.8417C56.5761 58.0934 50.6836 64.0842 50.6836 64.0842L49.3163 68.3212Z" fill="#A0616A"/>
<path opacity="0.1" d="M41.1288 49.1922H40.9393C40.9393 49.1922 38.0015 45.6935 37.4329 50.4215C36.8643 55.1494 34.969 70.8462 39.8968 71.4136C44.8247 71.9809 48.3311 69.0496 48.3311 69.0496C48.3311 69.0496 51.9322 63.5652 50.6055 63.5652C49.9636 63.5652 48.2177 63.2775 46.6253 63.376C44.9266 63.4812 43.4002 63.9587 43.498 63.4706C43.6875 62.525 46.4358 50.516 41.1288 49.1922Z" fill="black"/>
<path d="M40.8445 45.5044L40.0864 45.1261C40.0864 45.1261 37.0539 45.6935 36.4853 50.4214C35.9167 55.1494 34.0213 70.8462 38.9492 71.4135C43.8771 71.9809 50.5108 70.6571 50.5108 70.6571C50.5108 70.6571 51.8375 63.4706 50.5108 63.4706C49.184 63.4706 42.3608 64.4162 42.5503 63.4706C42.7399 62.525 46.1515 46.8282 40.8445 45.5044Z" fill="#575A89"/>
<path d="M64.0625 66.7802L66.1525 63.584L67.4741 68.8605L64.0625 70.3735V66.7802Z" fill="#575A89"/>
<path d="M21.1279 21.2027C23.9542 21.2027 26.2453 18.9166 26.2453 16.0965C26.2453 13.2764 23.9542 10.9903 21.1279 10.9903C18.3016 10.9903 16.0105 13.2764 16.0105 16.0965C16.0105 18.9166 18.3016 21.2027 21.1279 21.2027Z" fill="#F2F2F2"/>
<path d="M27.193 54.1093H15.0629V66.2128H27.193V54.1093Z" fill="#F2F2F2"/>
<path d="M70.5067 0L73.5769 5.30609L76.647 10.6122H70.5067H64.3663L67.4364 5.30609L70.5067 0Z" fill="#F2F2F2"/>
<path d="M124 31.8151C123.927 34.0789 123.374 35.8934 122.342 37.2586C121.311 38.624 120.085 39.3067 118.665 39.3068C117.509 39.3068 116.495 38.6387 115.625 37.3024C114.754 35.9662 114.318 33.9108 114.318 31.1361C114.318 30.5227 114.333 29.9386 114.362 29.3836C114.391 28.8288 114.428 28.3031 114.472 27.8064L115.24 20.5995H110.169C109.291 29.7122 108.57 35.1338 108.007 36.8644C107.443 38.5949 106.488 39.4601 105.142 39.4602C104.534 39.4453 103.954 39.2029 103.517 38.7811C103.264 38.5571 103.063 38.2798 102.931 37.9692C102.798 37.6585 102.736 37.3223 102.749 36.9848C102.749 36.3133 103.279 35.375 104.34 34.17C105.401 32.9652 105.991 31.8662 106.108 30.8732L107.425 20.5995H105.295C104.695 20.6031 104.104 20.7495 103.572 21.0267C103.082 21.2512 102.656 21.5937 102.332 22.0234L101.388 23.4253H100.619C101.336 21.2057 102.218 19.5372 103.265 18.4199C104.311 17.3027 105.515 16.7441 106.876 16.7441H123.649V20.5995H117.985C117.809 22.352 117.674 24.1044 117.579 25.8568C117.483 27.6093 117.436 29.369 117.436 31.1361C117.436 32.3337 117.714 33.3048 118.27 34.0495C118.826 34.7943 119.521 35.1667 120.356 35.1667C120.868 35.1667 121.406 34.9586 121.969 34.5423C122.237 34.355 122.461 34.1122 122.626 33.8306C122.79 33.5489 122.892 33.235 122.924 32.9104C122.968 32.5893 123.001 32.3374 123.023 32.1547C123.045 31.9722 123.056 31.8591 123.056 31.8151L124 31.8151Z" fill="#F9A826"/>
<path opacity="0.1" d="M124 31.8151C123.927 34.0789 123.374 35.8934 122.342 37.2586C121.311 38.624 120.085 39.3067 118.665 39.3068C117.509 39.3068 116.495 38.6387 115.625 37.3024C114.754 35.9662 114.318 33.9108 114.318 31.1361C114.318 30.5227 114.333 29.9386 114.362 29.3836C114.391 28.8288 114.428 28.3031 114.472 27.8064L115.24 20.5995H110.169C109.291 29.7122 108.57 35.1338 108.007 36.8644C107.443 38.5949 106.488 39.4601 105.142 39.4602C104.534 39.4453 103.954 39.2029 103.517 38.7811C103.264 38.5571 103.063 38.2798 102.931 37.9692C102.798 37.6585 102.736 37.3223 102.749 36.9848C102.749 36.3133 103.279 35.375 104.34 34.17C105.401 32.9652 105.991 31.8662 106.108 30.8732L107.425 20.5995H105.295C104.695 20.6031 104.104 20.7495 103.572 21.0267C103.082 21.2512 102.656 21.5937 102.332 22.0234L101.388 23.4253H100.619C101.336 21.2057 102.218 19.5372 103.265 18.4199C104.311 17.3027 105.515 16.7441 106.876 16.7441H123.649V20.5995H117.985C117.809 22.352 117.674 24.1044 117.579 25.8568C117.483 27.6093 117.436 29.369 117.436 31.1361C117.436 32.3337 117.714 33.3048 118.27 34.0495C118.826 34.7943 119.521 35.1667 120.356 35.1667C120.868 35.1667 121.406 34.9586 121.969 34.5423C122.237 34.355 122.461 34.1122 122.626 33.8306C122.79 33.5489 122.892 33.235 122.924 32.9104C122.968 32.5893 123.001 32.3374 123.023 32.1547C123.045 31.9722 123.056 31.8591 123.056 31.8151L124 31.8151Z" fill="black"/>
<path d="M124 31.1307C123.927 33.3945 123.374 35.209 122.342 36.5742C121.311 37.9396 120.085 38.6223 118.665 38.6224C117.509 38.6224 116.495 37.9543 115.625 36.618C114.754 35.2818 114.318 33.2263 114.318 30.4517C114.318 29.8383 114.333 29.2542 114.362 28.6992C114.391 28.1444 114.428 27.6187 114.472 27.122L115.24 19.9151H110.169C109.291 29.0278 108.57 34.4494 108.007 36.1799C107.443 37.9104 106.488 38.7757 105.142 38.7758C104.534 38.7609 103.954 38.5185 103.517 38.0967C103.264 37.8727 103.063 37.5954 102.931 37.2847C102.798 36.9741 102.736 36.6379 102.749 36.3004C102.749 35.6289 103.279 34.6906 104.34 33.4856C105.401 32.2807 105.991 31.1818 106.108 30.1888L107.425 19.9151H105.295C104.695 19.9187 104.104 20.0651 103.572 20.3422C103.082 20.5667 102.656 20.9092 102.332 21.3389L101.388 22.7409H100.619C101.336 20.5213 102.218 18.8528 103.265 17.7355C104.311 16.6183 105.515 16.0597 106.876 16.0597H123.649V19.9151H117.985C117.809 21.6676 117.674 23.42 117.579 25.1724C117.483 26.9249 117.436 28.6846 117.436 30.4517C117.436 31.6493 117.714 32.6204 118.27 33.3651C118.826 34.1099 119.521 34.4823 120.356 34.4823C120.868 34.4823 121.406 34.2742 121.969 33.8579C122.237 33.6706 122.461 33.4278 122.626 33.1462C122.79 32.8645 122.892 32.5506 122.924 32.226C122.968 31.9049 123.001 31.653 123.023 31.4703C123.045 31.2878 123.056 31.1746 123.056 31.1307H124Z" fill="#F9A826"/>
</g>
<defs>
<clipPath id="clip0_40_2144">
<rect width="124" height="129" fill="white"/>
</clipPath>
</defs>
</svg>
