<svg width="121" height="126" viewBox="0 0 121 126" fill="none" xmlns="http://www.w3.org/2000/svg">
<g clip-path="url(#clip0_40_2178)">
<path d="M121 63C121.007 69.8889 119.928 76.7324 117.805 83.2569C117.683 83.6297 117.558 84.0012 117.431 84.3715C115.182 90.8461 111.931 96.8937 107.806 102.274C106.575 103.883 105.27 105.425 103.892 106.901C102.513 108.379 101.067 109.785 99.551 111.119C91.0978 118.583 80.8292 123.473 69.8774 125.247H69.8756C68.4795 125.473 67.0696 125.648 65.646 125.774C63.9509 125.924 62.2355 125.999 60.4999 126C52.4285 126.011 44.4372 124.335 36.9994 121.071C29.5616 117.806 22.8286 113.021 17.1994 106.997C16.8039 106.576 16.4143 106.149 16.0306 105.715C15.0748 104.636 14.1553 103.523 13.2723 102.377C12.7765 101.732 12.2926 101.077 11.8207 100.412C8.91362 96.3226 6.49496 91.88 4.61794 87.1823C3.81748 85.1815 3.11844 83.1384 2.52371 81.0612C2.48076 80.914 2.43959 80.7668 2.39842 80.6195C2.30892 80.3026 2.22241 79.9839 2.13888 79.6633C0.715003 74.2332 -0.00438121 68.6289 -0.000103102 63C-0.000103102 28.2065 27.0871 0 60.4999 0C93.9127 0 121 28.2065 121 63Z" fill="#F2F2F2"/>
<path d="M25.6584 37.6568C25.5647 38.249 25.5969 38.8554 25.7526 39.4333C25.9083 40.0111 26.1838 40.5464 26.5597 41.0014C26.9356 41.4563 27.4027 41.82 27.9282 42.0666C28.4536 42.3133 29.0246 42.437 29.6009 42.429L39.2584 71.6909L45.4206 67.2809L33.5249 37.9734C33.4478 36.9662 33.0186 36.0233 32.3186 35.3235C31.6185 34.6238 30.6963 34.2157 29.7267 34.1767C28.757 34.1377 27.8073 34.4704 27.0575 35.1118C26.3077 35.7532 25.8099 36.6588 25.6584 37.6568Z" fill="#A0616A"/>
<path d="M76.0645 47.5575C71.7758 52.6385 61.2008 61.5927 52.4892 67.7585C50.6062 69.0912 48.8091 70.2916 47.182 71.2962C46.083 71.9747 45.0609 72.5618 44.1409 73.0409C43.5234 73.3612 42.849 73.5453 42.1601 73.5816C41.4711 73.6179 40.7823 73.5057 40.1369 73.252C39.4915 72.9983 38.9033 72.6085 38.4093 72.1071C37.9152 71.6057 37.5259 71.0035 37.2657 70.3382L31.2336 55.1418L33.3207 53.701L38.4668 50.1465L39.6356 49.3413L44.4613 61.3094L49.5501 57.056L52.7094 54.4148L67.1112 42.3796L68.3534 41.9956L71.2513 44.9406L73.3008 47.0245L75.2286 47.373C75.5168 47.4252 75.796 47.4867 76.0645 47.5575Z" fill="#FB923C"/>
<path d="M114.542 89.3113C114.841 89.7065 115.15 90.0997 115.46 90.4949C114.393 92.7756 113.194 94.9866 111.869 97.1155C111.771 97.0428 111.673 96.9701 111.574 96.8974C111.559 96.8886 111.544 96.8786 111.529 96.8676C111.162 96.5954 110.794 96.327 110.427 96.0549V96.0531C110.124 94.9803 109.955 93.8715 109.924 92.7539C110.113 92.7087 110.284 92.604 110.415 92.454C110.545 92.304 110.627 92.1159 110.651 91.9153C110.676 91.7146 110.64 91.5111 110.549 91.3324C110.458 91.1537 110.317 91.0083 110.144 90.9161C110.096 90.8285 110.062 90.7651 110.013 90.6757C110.015 90.6533 110.019 90.6291 110.02 90.6067C110.302 88.2787 113.151 87.466 114.542 89.3113Z" fill="white"/>
<path d="M117.755 81.3338C117.97 81.9489 118.165 82.5708 118.342 83.1996C118.22 83.5723 118.096 83.9439 117.968 84.3142C117.92 84.1185 117.869 83.9228 117.817 83.727C117.526 82.6388 117.177 81.5685 116.77 80.5211C116.437 79.6619 116.069 78.8206 115.664 77.9974C113.465 73.5252 110.277 69.6604 106.364 66.7208C104.746 66.3313 103.283 65.4348 102.17 64.1523C101.768 63.6915 101.433 63.173 101.173 62.6127C101.338 62.5885 101.502 62.5549 101.663 62.5195C101.713 62.5083 101.765 62.4953 101.815 62.4841L101.835 62.4804C102.011 62.4379 102.172 62.3433 102.297 62.208C102.423 62.0727 102.509 61.9024 102.544 61.7177C102.579 61.533 102.562 61.3418 102.495 61.1669C102.428 60.992 102.314 60.841 102.166 60.7321C102.075 60.6631 101.982 60.596 101.891 60.5289C101.751 60.4226 101.61 60.322 101.468 60.2176C101.453 60.2079 101.439 60.1974 101.425 60.1859C101.264 60.0666 101.103 59.9511 100.944 59.8299C101.067 59.4146 101.281 59.0345 101.568 58.719C102.569 57.6436 104.355 57.6678 105.522 58.5438C106.691 59.4199 107.278 60.9539 107.354 62.4487C107.42 63.7292 107.155 64.9967 106.806 66.2324C106.893 66.2995 106.985 66.3629 107.072 66.4319C108.684 67.6755 110.174 69.0808 111.522 70.6275C110.744 68.704 110.461 66.1952 110.663 64.4673C110.894 62.499 111.812 60.6295 112.564 58.7675C113.464 56.5308 116.536 56.501 117.402 58.7526C117.411 58.775 117.42 58.7955 117.427 58.8178C117.282 58.9688 117.143 59.1254 117.008 59.2875C116.84 59.4919 116.735 59.7444 116.706 60.0122C116.678 60.2799 116.728 60.5503 116.849 60.788C116.971 61.0257 117.159 61.2196 117.388 61.3443C117.617 61.469 117.877 61.5187 118.134 61.4869L118.161 61.4832C118.273 62.1477 118.336 62.82 118.351 63.4944C118.373 65.3812 118.021 67.2524 117.316 68.9908C116.611 70.7292 115.569 72.2973 114.256 73.5967C114.17 73.6806 114.085 73.7626 113.998 73.8428C114.827 75.0706 115.572 76.3581 116.226 77.6955C116.807 78.8743 117.318 80.0894 117.755 81.3338Z" fill="white"/>
<path d="M83.2654 63.8481L82.7249 102.507L39.0575 101.203L46.0311 85.173C45.981 84.6586 49.0919 81.0482 49.074 80.5132C49.0203 78.9457 50.1444 77.4937 50.327 75.8535C50.6993 72.4705 48.5674 59.6953 49.5501 57.056C49.9687 55.8774 50.5051 54.7479 51.1503 53.6861C51.7088 52.8063 52.2816 52.2136 52.8293 51.9992L54.4438 48.0813L55.8758 45.8446L67.1112 42.3796L68.3535 41.9956L71.2514 44.9406L73.3008 47.0245L75.2286 47.373C75.5168 47.4252 75.796 47.4867 76.0645 47.5575C77.3576 47.868 78.5629 48.4898 79.5835 49.373C82.9486 52.3496 83.3406 57.9488 83.2654 63.8481Z" fill="#FB923C"/>
<path d="M108.343 102.217C107.112 103.826 105.807 105.368 104.429 106.843L99.7069 106.847L74.313 106.877L69.7415 106.882L66.7022 106.886L62.1808 106.89L58.703 106.894L52.2789 106.901L48.4896 106.907L40.51 106.914L36.701 106.92L26.1457 106.931L19.5158 106.938L17.7366 106.94C17.341 106.519 16.9514 106.091 16.5677 105.658C15.6119 104.579 14.6925 103.466 13.8094 102.319L17.4931 102.316L20.0026 102.314L25.8128 102.306L37.025 102.295L40.8143 102.292L42.3465 102.29H42.3518L43.5547 102.288L44.0935 102.286L45.4735 102.284H46.057L50.1488 102.28L58.975 102.269L62.8592 102.265L66.5787 102.262L70.0655 102.258L75.0684 102.252L101.789 102.224L108.343 102.217Z" fill="#CCCCCC"/>
<path d="M47.9285 44.1693L47.9187 44.1703C47.4024 44.2203 46.8881 44.0547 46.489 43.7099C46.0898 43.365 45.8386 42.8692 45.7906 42.3315L44.7727 31.0177C44.5884 28.9909 44.7974 26.9462 45.3872 25.0052C46.5433 21.2169 49.0586 18.0393 52.4091 16.1346C54.1391 15.1537 56.0419 14.5477 58.0029 14.3532C66.0253 13.5573 68.957 15.2972 73.9127 28.0382C78.8683 40.7793 74.9322 39.3693 74.9322 39.3693C74.957 39.642 74.9288 39.917 74.8493 40.1781C74.6934 40.6875 74.3544 41.1144 73.9033 41.3697C73.6718 41.5004 73.4174 41.5814 73.1553 41.6077C63.6711 44.1181 54.1011 46.7606 47.9268 44.1695L47.9285 44.1693Z" fill="#2F2E41"/>
<path d="M65.5812 25.0734C66.7718 26.9077 67.4136 29.0682 67.4257 31.2822C67.4377 33.4961 66.8195 35.6641 65.649 37.5123C64.4785 39.3605 62.8083 40.8061 60.8493 41.6665C58.8903 42.5269 56.7304 42.7634 54.6424 42.3463C53.2602 42.0748 51.9435 41.5205 50.7685 40.7153C49.5935 39.9102 48.5837 38.8702 47.7974 37.6557C46.6094 35.8221 45.9693 33.6631 45.9579 31.4512C45.9465 29.2392 46.5643 27.0733 47.7334 25.2264C48.9024 23.3796 50.5705 21.9345 52.5271 21.0734C54.4838 20.2123 56.6415 19.9738 58.7281 20.3879C60.1114 20.6577 61.4295 21.2109 62.6059 22.0153C63.7823 22.8197 64.7937 23.8593 65.5813 25.0738L65.5812 25.0734Z" fill="#9E616A"/>
<path d="M41.4096 32.2746C41.2639 30.6717 41.4293 29.0546 41.8957 27.5195C42.0038 23.7642 43.0501 20.3629 47.4486 20.5056C48.8082 19.7354 50.3027 19.2579 51.8432 19.1014L54.0167 18.8779C54.0411 18.8754 54.0655 18.8729 54.09 18.8706C55.5959 18.7246 57.1146 18.889 58.5595 19.3542C60.0044 19.8195 61.3471 20.5765 62.511 21.5822C63.6749 22.5878 64.6372 23.8223 65.343 25.2152C66.0488 26.6081 66.4841 28.1321 66.6243 29.7002L66.6447 29.9268L62.0461 30.3949L60.067 25.9846L60.1646 30.5874L57.7896 30.8301L56.7915 28.605L56.8402 30.9257C53.3138 34.1599 47.9663 34.3294 41.432 32.5015L41.4096 32.2746Z" fill="#2F2E41"/>
<path d="M56.1191 43.0106C56.08 43.3834 56.1421 43.7601 56.2984 44.0979C56.3772 44.271 56.4788 44.4317 56.6004 44.5753C56.7044 44.6977 56.822 44.8068 56.9506 44.9004C57.3315 45.1766 57.7945 45.3024 58.2565 45.2552C58.2853 45.2521 58.314 45.2485 58.3427 45.2442C58.3714 45.24 58.4 45.2351 58.4285 45.2295C58.4574 45.2242 58.486 45.218 58.5144 45.211C58.5429 45.2039 58.5714 45.1964 58.5999 45.1882L60.2049 44.7199L62.0036 39.4973L62.416 44.0801L69.714 41.9642L67.9644 22.5172L55.5253 23.7935L55.8664 24.1356C56.9999 25.2844 57.807 26.7366 58.199 28.3324C58.588 29.9495 58.7081 31.624 58.554 33.2833C58.4101 34.9612 58.1117 36.6207 57.6632 38.2392C57.2727 39.6723 56.8032 41.0808 56.2571 42.4577C56.1865 42.6343 56.1401 42.8205 56.1191 43.0106Z" fill="#2F2E41"/>
<path d="M57.7779 104.324C57.564 104.324 57.3529 104.275 57.1597 104.179L22.6998 105.094C22.4354 104.964 22.2151 104.753 22.0682 104.49C21.9213 104.226 21.8546 103.922 21.8769 103.619C21.8992 103.315 22.0095 103.025 22.1931 102.788C22.3768 102.551 22.6253 102.377 22.9057 102.29L45.4503 95.2903C45.6838 95.2179 45.931 95.208 46.1691 95.2617L81.0418 99.6878C81.3504 99.7572 81.6287 99.9299 81.8342 100.18C82.0397 100.429 82.1611 100.742 82.1799 101.07C82.1987 101.398 82.1138 101.724 81.9383 101.997C81.7627 102.27 81.5061 102.476 81.2076 102.583L58.2501 104.242C58.0982 104.296 57.9386 104.324 57.7779 104.324Z" fill="#3F3D56"/>
<path d="M59.0452 101.827C58.8896 101.827 58.7366 101.785 58.6008 101.706L30.6143 103.068C30.4554 102.975 30.327 102.834 30.2458 102.664C30.1647 102.494 30.1345 102.303 30.1593 102.115C30.1841 101.927 30.2627 101.751 30.3848 101.61C30.5069 101.47 30.6669 101.37 30.844 101.326L40.9757 98.7649C41.1339 98.7251 41.2993 98.7301 41.455 98.7795L67.4724 98.747C67.6576 98.806 67.8198 98.9252 67.9353 99.0872C68.0508 99.2491 68.1134 99.4453 68.1141 99.647C68.1148 99.8487 68.0534 100.045 67.9391 100.208C67.8247 100.371 67.6633 100.491 67.4785 100.552L59.3159 101.783C59.2283 101.812 59.137 101.827 59.0452 101.827Z" fill="#2F2E41"/>
<path d="M56.0994 100.273C56.5838 100.598 57.1308 100.809 57.7019 100.89C58.2729 100.972 58.8542 100.921 59.4046 100.744C59.955 100.566 60.4613 100.264 60.8878 99.8604C61.3142 99.4566 61.6505 98.9604 61.8729 98.4067L91.4956 100.83L90.0636 93.1878L59.5098 92.8847C58.5918 92.5573 57.5903 92.592 56.6952 92.9822C55.8001 93.3723 55.0735 94.0908 54.6531 95.0016C54.2327 95.9123 54.1478 96.952 54.4143 97.9236C54.6809 98.8951 55.2805 99.7312 56.0994 100.273Z" fill="#A0616A"/>
<path d="M73.5961 50.5044C73.5961 50.5044 78.071 46.7766 83.4408 53.4866C87.0621 58.0118 94.0479 85.3677 94.6271 96.7036C94.6637 97.4209 94.5576 98.1383 94.3155 98.811C94.0734 99.4836 93.7005 100.097 93.2202 100.612C92.7398 101.128 92.1624 101.535 91.524 101.807C90.8857 102.079 90.2002 102.211 89.5106 102.195L73.7214 101.909L71.9558 91.5732L84.4216 91.7269L73.5961 50.5044Z" fill="#FB923C"/>
<path d="M55.8612 104.329C55.3195 104.328 54.7834 104.215 54.2842 103.996L22.3441 104.755C21.5012 104.389 20.8015 103.738 20.3581 102.906C19.9147 102.075 19.7535 101.112 19.9007 100.173L18.7139 70.9636C18.8713 69.9203 19.3986 68.9763 20.1918 68.3181C20.985 67.6599 21.9863 67.3353 22.9981 67.4085L52.6508 68.6892C53.22 68.728 53.775 68.891 54.2798 69.1676C54.7846 69.4442 55.228 69.8282 55.5811 70.2947C55.9342 70.7612 56.1892 71.2998 56.3295 71.8755C56.4699 72.4512 56.4925 73.0512 56.3958 73.6366L59.87 100.807C59.7066 101.791 59.215 102.684 58.4818 103.328C57.7485 103.972 56.8206 104.327 55.8612 104.329Z" fill="#3F3D56"/>
<path d="M31.6077 17.366L18.278 17.3268C17.9207 17.3264 17.5778 17.4735 17.3245 17.7359C17.0712 17.9983 16.9281 18.3546 16.9266 18.7266L16.8783 37.1066C16.8775 37.4783 17.0185 37.8351 17.2702 38.0986C17.5219 38.3621 17.8638 38.5108 18.2208 38.512L25.615 38.5344L31.5522 38.5511C31.9094 38.5518 32.2523 38.4047 32.5054 38.1422C32.7585 37.8797 32.9011 37.5233 32.9018 37.1513L32.9054 36.0647L32.952 18.7732C32.9527 18.4011 32.8115 18.0438 32.5595 17.78C32.3074 17.5161 31.9651 17.3672 31.6077 17.366Z" fill="#E6E6E6"/>
<path d="M30.668 18.4638L19.2124 18.4303C18.8779 18.4298 18.5568 18.5675 18.3196 18.8131C18.0824 19.0587 17.9484 19.3923 17.9469 19.7406L17.9147 31.5578C17.9124 33.1097 18.5014 34.5991 19.5523 35.6995C20.6033 36.7998 22.0305 37.4211 23.5208 37.4272L25.6973 37.4328L30.6179 37.4477C30.9525 37.4485 31.2737 37.3109 31.511 37.0652C31.7483 36.8195 31.8822 36.4858 31.8834 36.1374L31.887 34.9482L31.9263 19.7816C31.9271 19.4332 31.795 19.0987 31.559 18.8516C31.3231 18.6045 31.0026 18.4651 30.668 18.4638Z" fill="white"/>
<path d="M29.3811 26.5383H20.4493C20.3789 26.5383 20.3092 26.5527 20.2441 26.5808C20.1791 26.6088 20.12 26.6499 20.0702 26.7018C20.0204 26.7536 19.981 26.8151 19.954 26.8829C19.9271 26.9506 19.9132 27.0232 19.9132 27.0965C19.9132 27.1698 19.9271 27.2424 19.954 27.3101C19.981 27.3779 20.0204 27.4394 20.0702 27.4912C20.12 27.5431 20.1791 27.5842 20.2441 27.6123C20.3092 27.6403 20.3789 27.6547 20.4493 27.6547H29.3811C29.5233 27.6547 29.6596 27.5959 29.7602 27.4912C29.8607 27.3866 29.9172 27.2446 29.9172 27.0965C29.9172 26.9485 29.8607 26.8065 29.7602 26.7018C29.6596 26.5971 29.5233 26.5383 29.3811 26.5383Z" fill="#FB923C"/>
<path d="M22.4129 23.4778H20.4493C20.3071 23.4778 20.1708 23.5366 20.0702 23.6413C19.9697 23.7459 19.9132 23.8879 19.9132 24.036C19.9132 24.184 19.9697 24.326 20.0702 24.4307C20.1708 24.5354 20.3071 24.5942 20.4493 24.5942H22.4129C22.555 24.5942 22.6914 24.5354 22.7919 24.4307C22.8925 24.326 22.9489 24.184 22.9489 24.036C22.9489 23.8879 22.8925 23.7459 22.7919 23.6413C22.6914 23.5366 22.555 23.4778 22.4129 23.4778Z" fill="#FB923C"/>
<path d="M29.3811 31.4459H20.4493C20.3071 31.4459 20.1708 31.5048 20.0702 31.6094C19.9697 31.7141 19.9132 31.8561 19.9132 32.0042C19.9132 32.1522 19.9697 32.2942 20.0702 32.3989C20.1708 32.5036 20.3071 32.5624 20.4493 32.5624H29.3811C29.5233 32.5624 29.6596 32.5036 29.7602 32.3989C29.8607 32.2942 29.9172 32.1522 29.9172 32.0042C29.9172 31.8561 29.8607 31.7141 29.7602 31.6094C29.6596 31.5048 29.5233 31.4459 29.3811 31.4459Z" fill="#FB923C"/>
<path d="M29.3811 28.993H20.4493C20.3073 28.993 20.1712 29.0517 20.0708 29.1563C19.9704 29.2608 19.9141 29.4025 19.9141 29.5503C19.9141 29.6981 19.9704 29.8399 20.0708 29.9444C20.1712 30.0489 20.3073 30.1076 20.4493 30.1076H29.3811C29.523 30.1076 29.6591 30.0489 29.7595 29.9444C29.8599 29.8399 29.9162 29.6981 29.9162 29.5503C29.9162 29.4025 29.8599 29.2608 29.7595 29.1563C29.6591 29.0517 29.523 28.993 29.3811 28.993Z" fill="#FB923C"/>
<path d="M27.6455 25.4517C27.0183 25.4517 26.4052 25.258 25.8837 24.8952C25.3622 24.5323 24.9558 24.0166 24.7158 23.4132C24.4757 22.8098 24.4129 22.1459 24.5353 21.5053C24.6577 20.8647 24.9597 20.2764 25.4032 19.8145C25.8467 19.3527 26.4117 19.0382 27.0268 18.9108C27.642 18.7834 28.2796 18.8488 28.859 19.0987C29.4385 19.3486 29.9338 19.7719 30.2822 20.3149C30.6306 20.858 30.8166 21.4964 30.8166 22.1495C30.8157 23.025 30.4813 23.8643 29.8868 24.4834C29.2923 25.1025 28.4862 25.4507 27.6455 25.4517ZM27.6455 19.0768C27.0619 19.0768 26.4914 19.257 26.0061 19.5947C25.5209 19.9323 25.1427 20.4122 24.9193 20.9736C24.696 21.5351 24.6376 22.1529 24.7514 22.749C24.8653 23.345 25.1463 23.8925 25.559 24.3222C25.9717 24.752 26.4974 25.0446 27.0698 25.1632C27.6422 25.2817 28.2355 25.2209 28.7747 24.9883C29.3139 24.7558 29.7747 24.3619 30.099 23.8566C30.4232 23.3513 30.5962 22.7572 30.5962 22.1495C30.5954 21.3349 30.2842 20.5539 29.731 19.9778C29.1778 19.4018 28.4278 19.0778 27.6455 19.0768Z" fill="#FB923C"/>
<path d="M28.9772 23.4286C28.7582 22.251 28.302 21.1351 27.6387 20.1544C27.6237 20.129 27.6027 20.108 27.5777 20.0934C27.5527 20.0789 27.5246 20.0712 27.4959 20.0712C27.4673 20.0712 27.4391 20.0789 27.4142 20.0934C27.3892 20.108 27.3682 20.129 27.3532 20.1544C26.7755 21.2066 26.4063 22.3687 26.2673 23.572C26.2416 23.7914 26.5724 23.7895 26.5979 23.572C26.6443 23.1821 26.7167 22.7959 26.8145 22.4164C26.8272 22.4138 26.8396 22.4099 26.8515 22.4046C27.291 22.1748 27.7876 22.0906 28.2744 22.1633C28.2787 22.164 28.2828 22.163 28.287 22.1635C28.4478 22.6038 28.572 23.0577 28.6585 23.5201C28.6988 23.7374 29.0174 23.6454 28.9772 23.4286ZM26.9335 21.9943C27.0853 21.5041 27.2784 21.0289 27.5107 20.5743C27.7566 20.9655 27.9702 21.3778 28.149 21.8067C27.7355 21.7743 27.3203 21.8384 26.9335 21.9943Z" fill="#FB923C"/>
</g>
<defs>
<clipPath id="clip0_40_2178">
<rect width="121" height="126" fill="white"/>
</clipPath>
</defs>
</svg>
