<svg width="172" height="121" viewBox="0 0 172 121" fill="none" xmlns="http://www.w3.org/2000/svg">
<g clip-path="url(#clip0_40_2087)">
<path d="M38.1136 12.1207H27.1449C26.0903 12.1217 25.0793 12.5403 24.3336 13.2847C23.5879 14.0291 23.1686 15.0385 23.1676 16.0913V27.9633C23.0274 27.9549 22.8872 27.9424 22.749 27.9257C20.1504 27.6527 17.6798 26.6605 15.6159 25.0608C13.5519 23.4611 11.9766 21.3177 11.0677 18.872C10.1587 16.4264 9.95211 13.7759 10.4713 11.2193C10.9904 8.66278 12.2147 6.30185 14.006 4.40274C15.7973 2.50364 18.0844 1.14187 20.6094 0.470981C23.1345 -0.199908 25.797 -0.153241 28.2969 0.605725C30.7968 1.36469 33.0346 2.80577 34.758 4.76648C36.4815 6.7272 37.6219 9.12957 38.0509 11.7027C38.0739 11.8407 38.0948 11.9807 38.1136 12.1207Z" fill="#F2F2F2"/>
<path d="M167.604 11.7028H27.1449C25.9794 11.704 24.8621 12.1668 24.038 12.9895C23.2138 13.8123 22.7503 14.9278 22.749 16.0913V90.0694C22.7503 91.2329 23.2138 92.3484 24.038 93.1711C24.8621 93.9938 25.9794 94.4566 27.1449 94.4579H167.604C168.77 94.4566 169.887 93.9938 170.711 93.1711C171.535 92.3484 171.999 91.2329 172 90.0694V16.0913C171.999 14.9278 171.535 13.8123 170.711 12.9895C169.887 12.1668 168.77 11.704 167.604 11.7028ZM171.581 90.0694C171.58 91.1221 171.161 92.1315 170.415 92.8759C169.67 93.6203 168.659 94.039 167.604 94.0399H27.1449C26.0904 94.039 25.0793 93.6203 24.3336 92.8759C23.588 92.1315 23.1686 91.1221 23.1677 90.0694V16.0913C23.1686 15.0385 23.588 14.0291 24.3336 13.2847C25.0793 12.5403 26.0904 12.1217 27.1449 12.1207H167.604C168.659 12.1217 169.67 12.5403 170.415 13.2847C171.161 14.0291 171.58 15.0385 171.581 16.0913V90.0694Z" fill="#3F3D56"/>
<path d="M160.696 23.6917H34.0527C33.9972 23.6917 33.944 23.6697 33.9047 23.6305C33.8654 23.5913 33.8434 23.5381 33.8434 23.4827C33.8434 23.4273 33.8654 23.3741 33.9047 23.335C33.944 23.2958 33.9972 23.2737 34.0527 23.2737H160.696C160.752 23.2737 160.805 23.2958 160.844 23.335C160.884 23.3741 160.906 23.4273 160.906 23.4827C160.906 23.5381 160.884 23.5913 160.844 23.6305C160.805 23.6697 160.752 23.6917 160.696 23.6917Z" fill="#3F3D56"/>
<path d="M69.8479 85.4718C69.7924 85.4718 69.7391 85.4498 69.6999 85.4106C69.6606 85.3714 69.6385 85.3183 69.6385 85.2628V16.5092C69.6385 16.4538 69.6606 16.4006 69.6999 16.3614C69.7391 16.3222 69.7924 16.3002 69.8479 16.3002C69.9034 16.3002 69.9566 16.3222 69.9959 16.3614C70.0351 16.4006 70.0572 16.4538 70.0572 16.5092V85.2628C70.0572 85.3183 70.0351 85.3714 69.9959 85.4106C69.9566 85.4498 69.9034 85.4718 69.8479 85.4718Z" fill="#3F3D56"/>
<path d="M101.456 85.4718C101.401 85.4718 101.348 85.4498 101.308 85.4106C101.269 85.3714 101.247 85.3183 101.247 85.2628V16.5092C101.247 16.4538 101.269 16.4006 101.308 16.3614C101.348 16.3222 101.401 16.3002 101.456 16.3002C101.512 16.3002 101.565 16.3222 101.604 16.3614C101.644 16.4006 101.666 16.4538 101.666 16.5092V85.2628C101.666 85.3183 101.644 85.3714 101.604 85.4106C101.565 85.4498 101.512 85.4718 101.456 85.4718Z" fill="#3F3D56"/>
<path d="M133.065 85.4718C133.009 85.4718 132.956 85.4498 132.917 85.4106C132.878 85.3714 132.856 85.3183 132.856 85.2628V16.5092C132.856 16.4538 132.878 16.4006 132.917 16.3614C132.956 16.3222 133.009 16.3002 133.065 16.3002C133.12 16.3002 133.174 16.3222 133.213 16.3614C133.252 16.4006 133.274 16.4538 133.274 16.5092V85.2628C133.274 85.3183 133.252 85.3714 133.213 85.4106C133.174 85.4498 133.12 85.4718 133.065 85.4718Z" fill="#3F3D56"/>
<path d="M49.5254 45.2619H41.8765C41.6268 45.2616 41.3874 45.1624 41.2108 44.9861C41.0342 44.8098 40.9348 44.5708 40.9346 44.3215V35.3105C40.9348 35.0611 41.0342 34.8221 41.2108 34.6458C41.3874 34.4695 41.6268 34.3703 41.8765 34.3701H49.5254C49.7751 34.3703 50.0146 34.4695 50.1912 34.6458C50.3678 34.8221 50.4671 35.0611 50.4674 35.3105V44.3215C50.4671 44.5708 50.3678 44.8098 50.1912 44.9861C50.0146 45.1624 49.7751 45.2616 49.5254 45.2619Z" fill="#F9A826"/>
<path d="M60.4104 70.9662H52.7616C52.5118 70.9659 52.2724 70.8667 52.0958 70.6904C51.9192 70.5141 51.8199 70.2751 51.8196 70.0258V61.0147C51.8199 60.7654 51.9192 60.5264 52.0958 60.3501C52.2724 60.1738 52.5118 60.0746 52.7616 60.0743H60.4104C60.6602 60.0746 60.8996 60.1738 61.0762 60.3501C61.2528 60.5264 61.3521 60.7654 61.3524 61.0147V70.0258C61.3521 70.2751 61.2528 70.5141 61.0762 70.6904C60.8996 70.8667 60.6602 70.9659 60.4104 70.9662Z" fill="#F9A826"/>
<path d="M85.1112 50.6953H77.4624C77.2126 50.695 76.9732 50.5958 76.7966 50.4195C76.62 50.2432 76.5207 50.0042 76.5204 49.7549V40.7439C76.5207 40.4945 76.62 40.2555 76.7966 40.0792C76.9732 39.9029 77.2126 39.8037 77.4624 39.8035H85.1112C85.361 39.8037 85.6004 39.9029 85.777 40.0792C85.9536 40.2555 86.0529 40.4945 86.0532 40.7439V49.7549C86.0529 50.0042 85.9536 50.2433 85.777 50.4195C85.6004 50.5958 85.361 50.695 85.1112 50.6953Z" fill="#F9A826"/>
<path d="M117.138 40.8734H109.49C109.24 40.8731 109 40.7739 108.824 40.5976C108.647 40.4213 108.548 40.1823 108.548 39.933V30.922C108.548 30.6726 108.647 30.4336 108.824 30.2573C109 30.081 109.24 29.9818 109.49 29.9816H117.138C117.388 29.9818 117.628 30.081 117.804 30.2573C117.981 30.4336 118.08 30.6726 118.08 30.922V39.933C118.08 40.1823 117.981 40.4214 117.804 40.5976C117.628 40.7739 117.388 40.8731 117.138 40.8734Z" fill="#F9A826"/>
<path d="M146.654 40.8734H139.005C138.755 40.8731 138.516 40.7739 138.339 40.5976C138.162 40.4213 138.063 40.1823 138.063 39.933V30.922C138.063 30.6726 138.162 30.4336 138.339 30.2573C138.516 30.081 138.755 29.9818 139.005 29.9816H146.654C146.903 29.9818 147.143 30.081 147.319 30.2573C147.496 30.4336 147.595 30.6726 147.596 30.922V39.933C147.595 40.1823 147.496 40.4214 147.319 40.5976C147.143 40.7739 146.903 40.8731 146.654 40.8734Z" fill="#F9A826"/>
<path d="M160.26 43.3811H152.611C152.361 43.3808 152.122 43.2816 151.945 43.1053C151.769 42.929 151.669 42.69 151.669 42.4407V33.4297C151.669 33.1803 151.769 32.9413 151.945 32.765C152.122 32.5887 152.361 32.4895 152.611 32.4893H160.26C160.51 32.4895 160.749 32.5887 160.926 32.765C161.102 32.9413 161.202 33.1803 161.202 33.4297V42.4407C161.202 42.69 161.102 42.929 160.926 43.1053C160.749 43.2816 160.51 43.3808 160.26 43.3811Z" fill="#E6E6E6"/>
<path d="M154.189 59.4724H146.541C146.291 59.4721 146.051 59.3729 145.875 59.1966C145.698 59.0203 145.599 58.7813 145.599 58.532V49.521C145.599 49.2716 145.698 49.0326 145.875 48.8563C146.051 48.68 146.291 48.5808 146.541 48.5806H154.189C154.439 48.5808 154.679 48.68 154.855 48.8563C155.032 49.0326 155.131 49.2716 155.131 49.521V58.532C155.131 58.7813 155.032 59.0204 154.855 59.1966C154.679 59.3729 154.439 59.4721 154.189 59.4724Z" fill="#E6E6E6"/>
<path d="M128.233 56.1288H120.584C120.334 56.1285 120.095 56.0293 119.918 55.853C119.742 55.6767 119.642 55.4377 119.642 55.1884V46.1773C119.642 45.928 119.742 45.689 119.918 45.5127C120.095 45.3364 120.334 45.2372 120.584 45.2369H128.233C128.483 45.2372 128.722 45.3364 128.899 45.5127C129.075 45.689 129.174 45.928 129.175 46.1773V55.1884C129.174 55.4377 129.075 55.6767 128.899 55.853C128.722 56.0293 128.483 56.1285 128.233 56.1288Z" fill="#FF6584"/>
<path d="M113.37 59.4724H105.722C105.472 59.4721 105.232 59.3729 105.056 59.1966C104.879 59.0203 104.78 58.7813 104.78 58.532V49.521C104.78 49.2716 104.879 49.0326 105.056 48.8563C105.232 48.68 105.472 48.5808 105.722 48.5806H113.37C113.62 48.5808 113.86 48.68 114.036 48.8563C114.213 49.0326 114.312 49.2716 114.312 49.521V58.532C114.312 58.7813 114.213 59.0204 114.036 59.1966C113.86 59.3729 113.62 59.4721 113.37 59.4724Z" fill="#E6E6E6"/>
<path d="M81.3433 73.6828H73.6944C73.4447 73.6826 73.2052 73.5834 73.0286 73.4071C72.852 73.2308 72.7527 72.9918 72.7524 72.7424V63.7314C72.7527 63.4821 72.852 63.2431 73.0286 63.0668C73.2052 62.8905 73.4447 62.7913 73.6944 62.791H81.3433C81.593 62.7913 81.8324 62.8905 82.009 63.0668C82.1856 63.2431 82.285 63.4821 82.2852 63.7314V72.7424C82.285 72.9918 82.1856 73.2308 82.009 73.4071C81.8324 73.5834 81.593 73.6826 81.3433 73.6828Z" fill="#E6E6E6"/>
<path d="M42.6176 61.7711H34.9687C34.719 61.7708 34.4795 61.6717 34.3029 61.4954C34.1263 61.3191 34.027 61.08 34.0267 60.8307V51.8197C34.027 51.5703 34.1263 51.3313 34.3029 51.155C34.4795 50.9787 34.719 50.8795 34.9687 50.8793H42.6176C42.8673 50.8795 43.1067 50.9787 43.2833 51.155C43.4599 51.3313 43.5593 51.5703 43.5595 51.8197V60.8307C43.5593 61.08 43.4599 61.3191 43.2833 61.4954C43.1067 61.6717 42.8673 61.7708 42.6176 61.7711Z" fill="#FF6584"/>
<path d="M64.1784 45.2619H56.5295C56.2798 45.2616 56.0403 45.1624 55.8637 44.9861C55.6871 44.8098 55.5878 44.5708 55.5875 44.3215V35.3105C55.5878 35.0611 55.6871 34.8221 55.8637 34.6458C56.0403 34.4695 56.2798 34.3703 56.5295 34.3701H64.1784C64.4281 34.3703 64.6675 34.4695 64.8441 34.6458C65.0207 34.8221 65.1201 35.0611 65.1203 35.3105V44.3215C65.1201 44.5708 65.0207 44.8098 64.8441 44.9861C64.6675 45.1624 64.4281 45.2616 64.1784 45.2619Z" fill="#E6E6E6"/>
<path d="M57.9161 20.2708H45.9844C45.7623 20.2708 45.5494 20.1828 45.3923 20.026C45.2353 19.8692 45.1471 19.6566 45.1471 19.4349C45.1471 19.2132 45.2353 19.0006 45.3923 18.8438C45.5494 18.6871 45.7623 18.599 45.9844 18.599H57.9161C58.1382 18.599 58.3512 18.6871 58.5082 18.8438C58.6652 19.0006 58.7534 19.2132 58.7534 19.4349C58.7534 19.6566 58.6652 19.8692 58.5082 20.026C58.3512 20.1828 58.1382 20.2708 57.9161 20.2708Z" fill="#CCCCCC"/>
<path d="M91.618 20.2708H79.6863C79.4642 20.2708 79.2513 20.1828 79.0942 20.026C78.9372 19.8692 78.849 19.6566 78.849 19.4349C78.849 19.2132 78.9372 19.0006 79.0942 18.8438C79.2513 18.6871 79.4642 18.599 79.6863 18.599H91.618C91.8401 18.599 92.0531 18.6871 92.2101 18.8438C92.3671 19.0006 92.4553 19.2132 92.4553 19.4349C92.4553 19.6566 92.3671 19.8692 92.2101 20.026C92.0531 20.1828 91.8401 20.2708 91.618 20.2708Z" fill="#CCCCCC"/>
<path d="M123.227 20.2708H111.295C111.073 20.2708 110.86 20.1828 110.703 20.026C110.546 19.8692 110.458 19.6566 110.458 19.4349C110.458 19.2132 110.546 19.0006 110.703 18.8438C110.86 18.6871 111.073 18.599 111.295 18.599H123.227C123.449 18.599 123.662 18.6871 123.819 18.8438C123.976 19.0006 124.064 19.2132 124.064 19.4349C124.064 19.6566 123.976 19.8692 123.819 20.026C123.662 20.1828 123.449 20.2708 123.227 20.2708Z" fill="#CCCCCC"/>
<path d="M152.742 20.2708H140.81C140.588 20.2708 140.375 20.1828 140.218 20.026C140.061 19.8692 139.973 19.6566 139.973 19.4349C139.973 19.2132 140.061 19.0006 140.218 18.8438C140.375 18.6871 140.588 18.599 140.81 18.599H152.742C152.964 18.599 153.177 18.6871 153.334 18.8438C153.491 19.0006 153.579 19.2132 153.579 19.4349C153.579 19.6566 153.491 19.8692 153.334 20.026C153.177 20.1828 152.964 20.2708 152.742 20.2708Z" fill="#CCCCCC"/>
<path d="M31.1919 81.4785C30.8856 81.4486 30.5896 81.352 30.3248 81.1955C30.06 81.039 29.8328 80.8264 29.6591 80.5728C29.4855 80.3191 29.3697 80.0306 29.3199 79.7274C29.27 79.4243 29.2874 79.1139 29.3707 78.8182L24.005 73.8317L26.842 73.1132L32.1183 77.3855C32.6066 77.5582 33.0146 77.9037 33.2649 78.3566C33.5151 78.8095 33.5903 79.3383 33.4761 79.8428C33.3619 80.3473 33.0663 80.7925 32.6453 81.094C32.2243 81.3954 31.7072 81.5323 31.1919 81.4785Z" fill="#FFB8B8"/>
<path d="M38.601 118.334H41.1674L42.3882 108.452H38.6006L38.601 118.334Z" fill="#FFB8B8"/>
<path d="M46.1167 120.713L38.0511 120.713L38.051 117.602L43.0003 117.602C43.8268 117.602 44.6194 117.93 45.2039 118.513C45.7883 119.096 46.1167 119.888 46.1167 120.713L46.1167 120.713Z" fill="#2F2E41"/>
<path d="M21.005 116.484L23.4851 117.143L27.2114 107.907L23.5513 106.935L21.005 116.484Z" fill="#FFB8B8"/>
<path d="M27.6549 120.714L19.8607 118.643L20.6623 115.636L25.4451 116.907C26.2438 117.119 26.9253 117.64 27.3397 118.353C27.7541 119.067 27.8675 119.916 27.6549 120.714Z" fill="#2F2E41"/>
<path d="M41.8575 116.463H37.9415C37.6942 116.464 37.4555 116.372 37.2724 116.206C37.0893 116.04 36.9751 115.812 36.9522 115.566L34.575 90.9209C34.5576 90.7402 34.4778 90.5711 34.3492 90.4426C34.2207 90.314 34.0514 90.2341 33.8704 90.2165C33.6893 90.1988 33.5077 90.2445 33.3567 90.3458C33.2057 90.4471 33.0946 90.5976 33.0425 90.7716L26.1403 113.801C26.0673 114.046 25.9024 114.253 25.6801 114.379C25.4578 114.505 25.1952 114.541 24.9471 114.479L21.3041 113.57C21.177 113.538 21.0574 113.481 20.9522 113.403C20.847 113.325 20.7583 113.227 20.6913 113.115C20.6242 113.002 20.5801 112.878 20.5614 112.748C20.5427 112.619 20.5499 112.487 20.5825 112.36C20.642 112.128 26.5297 89.1579 26.5811 88.9218C27.9151 79.1066 29.5111 76.4764 30.3685 75.0636C30.4394 74.9466 30.5047 74.8391 30.5634 74.7374C30.6369 74.6103 31.0893 73.3489 31.3763 72.5297C31.4136 72.3964 31.4781 72.2724 31.5659 72.1653C31.6536 72.0582 31.7626 71.9704 31.886 71.9075C35.4887 70.0681 39.7039 71.3413 40.91 71.7754C41.1099 71.8457 41.2817 71.9788 41.3994 72.1548C45.0176 77.6031 43.242 109.246 42.8493 115.535C42.8329 115.786 42.7213 116.022 42.5372 116.194C42.353 116.367 42.11 116.463 41.8575 116.463Z" fill="#2F2E41"/>
<path d="M31.7518 54.0385C34.5913 54.0385 36.8931 51.7406 36.8931 48.9058C36.8931 46.0711 34.5913 43.7731 31.7518 43.7731C28.9123 43.7731 26.6105 46.0711 26.6105 48.9058C26.6105 51.7406 28.9123 54.0385 31.7518 54.0385Z" fill="#FFB8B8"/>
<path d="M31.2071 73.5262L31.1701 73.4905C31.1008 73.4236 24.2506 66.7239 25.1371 60.5288C25.5163 57.879 27.6638 56.186 31.3474 55.6323C32.7007 55.4317 34.0811 55.7254 35.2348 56.4595C36.3885 57.1936 37.238 58.3188 37.6272 59.6282L41.2695 72.0591L31.2071 73.5262Z" fill="#CCCCCC"/>
<path d="M27.701 78.2915L22.8198 73.4493C22.4861 73.1163 22.2438 72.7032 22.1162 72.2497C21.9886 71.7961 21.9801 71.3175 22.0914 70.8597L24.4544 61.2637C24.5252 60.9761 24.6544 60.7062 24.8339 60.4704C25.0134 60.2347 25.2395 60.0383 25.4981 59.8933C25.7567 59.7484 26.0424 59.6579 26.3374 59.6276C26.6325 59.5973 26.9306 59.6278 27.2134 59.7172C27.7523 59.8906 28.2025 60.2667 28.4686 60.7657C28.7346 61.2648 28.7956 61.8476 28.6387 62.3908L26.1509 70.8328L30.1739 75.1454L27.701 78.2915Z" fill="#CCCCCC"/>
<path d="M53.882 61.7659C53.7529 62.0448 53.5642 62.292 53.329 62.4902C53.0939 62.6884 52.8181 62.8327 52.5211 62.913C52.224 62.9933 51.913 63.0075 51.6098 62.9548C51.3066 62.9021 51.0187 62.7836 50.7664 62.6078L44.2501 65.9796L44.5381 63.1154L50.3149 59.5463C50.6389 59.1426 51.0999 58.8716 51.6107 58.7847C52.1214 58.6977 52.6463 58.8008 53.086 59.0744C53.5257 59.348 53.8496 59.7731 53.9963 60.2692C54.143 60.7652 54.1023 61.2978 53.882 61.7659H53.882Z" fill="#FFB8B8"/>
<path d="M50.0548 63.8979L43.7025 66.6384C43.2797 66.8193 42.8174 66.8887 42.36 66.8397C41.9025 66.7907 41.4655 66.625 41.0907 66.3586L33.013 60.5806C32.7719 60.4082 32.5688 60.1881 32.4163 59.9342C32.2638 59.6802 32.1652 59.3977 32.1265 59.1042C32.0877 58.8106 32.1098 58.5122 32.1912 58.2275C32.2726 57.9428 32.4117 57.6778 32.5999 57.4489C32.9614 57.0137 33.4784 56.7362 34.0414 56.675C34.6044 56.6138 35.1691 56.7739 35.616 57.1212L42.5423 62.5634L48.0477 60.437L50.0548 63.8979Z" fill="#CCCCCC"/>
<path d="M32.6041 50.5505C33.2384 49.7572 34.4234 49.7145 35.2946 49.1912C36.4358 48.5057 36.9076 46.9738 36.5399 45.6958C36.1721 44.4179 35.0875 43.4219 33.844 42.9456C32.6006 42.4693 31.2171 42.4634 29.9054 42.6936C27.9523 43.0365 26.0294 43.9465 24.8382 45.5293C23.6471 47.112 23.3439 49.43 24.4235 51.0907C24.9196 51.8539 25.6855 52.4839 25.8836 53.3721C26.1437 54.5381 25.3244 55.6627 24.4468 56.4746C23.4468 57.3996 22.2997 58.1743 21.4236 59.217C20.5476 60.2597 19.9635 61.6842 20.3632 62.9853C20.6981 64.0754 21.6727 64.8785 22.7415 65.2807C23.8102 65.6829 24.9742 65.741 26.1161 65.7633C27.2249 65.785 28.4027 65.758 29.3368 65.1612C30.3368 64.5222 30.8707 63.31 30.9102 62.1253C30.9496 60.9407 30.5531 59.7801 30.0217 58.7202C29.7049 58.0884 29.3366 57.4762 29.1261 56.8017C28.9156 56.1272 28.8792 55.3618 29.2162 54.7406C29.5706 54.0876 30.2874 53.6938 31.0173 53.5506C31.0553 53.5432 31.0954 53.5365 31.1373 53.5306C31.345 53.5037 31.5451 53.4351 31.7254 53.3288C31.9058 53.2225 32.0626 53.0808 32.1866 52.9123C32.3105 52.7437 32.3989 52.5519 32.4464 52.3483C32.4939 52.1446 32.4996 51.9335 32.4631 51.7276C32.3799 51.2649 32.3871 50.822 32.6041 50.5505Z" fill="#2F2E41"/>
<path d="M101.154 118.553H98.5871L97.3663 108.671L101.154 108.671L101.154 118.553Z" fill="#A0616A"/>
<path d="M96.7539 117.821H101.703V120.932H93.6377C93.6377 120.523 93.7183 120.119 93.8749 119.741C94.0315 119.364 94.261 119.021 94.5504 118.732C94.8398 118.443 95.1833 118.214 95.5614 118.058C95.9395 117.901 96.3447 117.821 96.7539 117.821Z" fill="#2F2E41"/>
<path d="M119.774 115.651L117.44 116.715L112.216 108.233L115.662 106.662L119.774 115.651Z" fill="#A0616A"/>
<path d="M115.468 116.81L119.97 114.757L121.264 117.587L113.928 120.932C113.758 120.56 113.663 120.159 113.648 119.751C113.634 119.342 113.7 118.935 113.843 118.553C113.986 118.17 114.203 117.819 114.482 117.52C114.761 117.221 115.096 116.979 115.468 116.81Z" fill="#2F2E41"/>
<path d="M112.301 85.2329C112.547 85.0482 112.749 84.8119 112.893 84.5407C113.038 84.2694 113.121 83.9699 113.137 83.6631C113.153 83.3563 113.102 83.0497 112.986 82.7649C112.87 82.4802 112.694 82.2242 112.468 82.015L115.485 75.1815L111.653 75.8299L109.376 82.2197C109.049 82.621 108.88 83.128 108.903 83.6447C108.925 84.1615 109.137 84.652 109.498 85.0235C109.858 85.3949 110.343 85.6213 110.859 85.66C111.376 85.6986 111.889 85.5466 112.301 85.2329Z" fill="#A0616A"/>
<path d="M100.99 115.947H98.5383C98.3005 115.947 98.0718 115.856 97.8976 115.695C97.7235 115.533 97.6168 115.312 97.5987 115.075L96.2618 79.4322C96.2518 79.2956 96.2719 79.1585 96.3205 79.0304C96.3692 78.9024 96.4453 78.7865 96.5435 78.6909C96.6417 78.5952 96.7596 78.5222 96.889 78.4768C97.0184 78.4314 97.1562 78.4148 97.2928 78.4281L111.472 79.9313C111.701 79.9538 111.915 80.0597 112.072 80.2289C112.228 80.3982 112.317 80.619 112.322 80.8495L112.619 96.572C112.621 96.6573 112.637 96.7418 112.668 96.8214L118.484 111.879C118.529 111.995 118.55 112.119 118.547 112.244C118.543 112.368 118.515 112.491 118.464 112.605C118.412 112.718 118.338 112.821 118.247 112.905C118.156 112.99 118.048 113.056 117.931 113.099L115.447 114.013C115.231 114.093 114.993 114.09 114.779 114.007C114.565 113.924 114.388 113.765 114.283 113.561L107.138 99.6913C107.099 99.616 107.071 99.5356 107.054 99.4526L105.833 93.5816C105.798 93.4114 105.703 93.2593 105.565 93.1527C105.428 93.046 105.257 92.9917 105.083 92.9996C104.909 93.0075 104.743 93.0769 104.616 93.1956C104.489 93.3142 104.408 93.4742 104.388 93.6469L101.926 115.114C101.9 115.343 101.79 115.555 101.617 115.709C101.444 115.862 101.221 115.947 100.99 115.947Z" fill="#2F2E41"/>
<path d="M102.211 51.5629C105.05 51.5629 107.352 49.2649 107.352 46.4302C107.352 43.5955 105.05 41.2975 102.211 41.2975C99.3712 41.2975 97.0693 43.5955 97.0693 46.4302C97.0693 49.2649 99.3712 51.5629 102.211 51.5629Z" fill="#A0616A"/>
<path d="M105.736 82.6912C102.25 82.6529 98.8465 81.6236 95.9247 79.7241L95.8746 79.6896L95.8798 79.6291L97.8464 56.7636C97.9142 55.9879 98.2611 55.2629 98.8229 54.7227C99.3846 54.1825 100.123 53.8636 100.902 53.8251C103.451 53.7081 106.875 53.8556 108.707 55.2182C111.477 57.2776 112.812 60.3787 112.37 63.7262C111.453 70.6682 112.491 80.0326 112.613 81.0775L112.622 81.1528L112.553 81.1844C110.418 82.1761 108.091 82.6903 105.736 82.6912Z" fill="#F9A826"/>
<path d="M112.589 81.1163C112.444 81.116 112.301 81.0858 112.168 81.0274C112.036 80.9691 111.917 80.8839 111.819 80.7773L110.694 79.5524C110.573 79.4193 110.487 79.2572 110.447 79.0817C110.406 78.9062 110.411 78.7233 110.462 78.5504L113.026 69.8854L109.125 61.7052C108.942 61.3223 108.898 60.8885 108.998 60.4766C109.087 60.115 109.283 59.7888 109.561 59.5408C109.839 59.2929 110.186 59.1349 110.556 59.0877C110.926 59.0406 111.301 59.1064 111.633 59.2766C111.964 59.4468 112.236 59.7133 112.413 60.0411L117.708 68.6179C117.923 68.9659 118.049 69.3612 118.075 69.7693C118.102 70.1773 118.027 70.5855 117.859 70.9581L113.544 80.5011C113.473 80.6588 113.364 80.7964 113.226 80.9015C113.089 81.0065 112.927 81.0758 112.756 81.1029C112.701 81.1117 112.645 81.1162 112.589 81.1163Z" fill="#F9A826"/>
<path d="M76.3499 64.5642C76.5968 64.7475 76.881 64.8746 77.1824 64.9364C77.4839 64.9982 77.7952 64.9934 78.0946 64.9221C78.3939 64.8508 78.6739 64.7149 78.9149 64.5238C79.156 64.3328 79.3521 64.0914 79.4895 63.8165L86.9077 64.777L85.2029 61.2895L78.4198 60.9121C77.942 60.7122 77.4073 60.6942 76.9171 60.8616C76.4268 61.029 76.0152 61.3701 75.76 61.8203C75.5049 62.2704 75.424 62.7984 75.5327 63.3041C75.6414 63.8098 75.9322 64.2581 76.3499 64.5641V64.5642Z" fill="#A0616A"/>
<path d="M92.7009 66.4688C92.5717 66.4688 92.4427 66.4599 92.3147 66.4422L80.6445 64.8263C80.4538 64.8001 80.2726 64.727 80.1172 64.6135C79.9619 64.5 79.8373 64.3497 79.7547 64.1761C79.728 64.1202 79.7057 64.0622 79.6881 64.0028H79.6881C79.6429 63.8485 79.6303 63.6866 79.651 63.5272C79.6718 63.3678 79.7253 63.2144 79.8084 63.0767L80.7742 61.4783C80.8781 61.3074 81.0242 61.1661 81.1985 61.0678C81.3728 60.9695 81.5695 60.9176 81.7697 60.917H81.7713L91.9438 60.9286L99.5412 54.1332C99.8946 53.8178 100.346 53.6334 100.82 53.6109C101.235 53.5917 101.647 53.6987 102.001 53.9179C102.354 54.1371 102.633 54.4581 102.8 54.8387C102.967 55.2193 103.015 55.6415 102.937 56.0496C102.859 56.4578 102.659 56.8327 102.363 57.125L94.782 65.5422C94.5197 65.8338 94.1988 66.067 93.8402 66.2267C93.4817 66.3863 93.0935 66.4688 92.7009 66.4688Z" fill="#F9A826"/>
<path d="M102.795 50.9964C103.265 49.9108 103.663 48.4651 102.761 47.6976C102.239 47.2524 101.486 47.2515 100.801 47.1961C98.8715 47.0401 96.8853 46.1538 95.9422 44.4662C94.9992 42.7785 95.5258 40.269 97.305 39.5075C98.5043 38.9943 99.8792 39.3439 101.135 39.6993L104.904 40.7663C106.024 41.0834 107.199 41.433 108.006 42.2713C109.292 43.6082 109.195 45.8681 108.174 47.4159C107.153 48.9637 105.615 50.5779 103.854 51.1655L102.795 50.9964Z" fill="#2F2E41"/>
<path d="M154.795 121H0.249234C0.216442 121 0.183955 120.994 0.153632 120.981C0.123309 120.969 0.0957484 120.95 0.0725273 120.927C0.0493062 120.904 0.0308817 120.877 0.0183108 120.847C0.00573983 120.816 -0.000732422 120.784 -0.000732422 120.751C-0.000732422 120.718 0.00573983 120.686 0.0183108 120.656C0.0308817 120.626 0.0493062 120.598 0.0725273 120.575C0.0957484 120.552 0.123309 120.534 0.153632 120.521C0.183955 120.509 0.216442 120.502 0.249234 120.502H154.795C154.828 120.502 154.86 120.509 154.891 120.521C154.921 120.534 154.948 120.552 154.972 120.575C154.995 120.598 155.013 120.626 155.026 120.656C155.038 120.686 155.045 120.718 155.045 120.751C155.045 120.784 155.038 120.816 155.026 120.847C155.013 120.877 154.995 120.904 154.972 120.927C154.948 120.95 154.921 120.969 154.891 120.981C154.86 120.994 154.828 121 154.795 121Z" fill="#3F3D56"/>
</g>
<defs>
<clipPath id="clip0_40_2087">
<rect width="172" height="121" fill="white"/>
</clipPath>
</defs>
</svg>
